<svg width="32" height="32" viewBox="0 0 32 32" fill="none" xmlns="http://www.w3.org/2000/svg">
<path d="M15 16H17V29H16H15V16Z" fill="black"/>
<path fill-rule="evenodd" clip-rule="evenodd" d="M11 13.5V7H10.5C9.67157 7 9 6.32843 9 5.5C9 4.67157 9.67157 4 10.5 4H11H21H21.5C22.3284 4 23 4.67157 23 5.5C23 6.32843 22.3284 7 21.5 7H21V13.5L25.1585 16.411C25.6859 16.7801 26 17.3834 26 18.0272C26 19.1167 25.1167 20 24.0272 20H7.97283C6.88327 20 6 19.1167 6 18.0272C6 17.3834 6.3141 16.7801 6.84149 16.411L11 13.5Z" fill="black"/>
</svg>
