<svg xmlns:dc="http://purl.org/dc/elements/1.1/" xmlns:cc="http://creativecommons.org/ns#" xmlns:rdf="http://www.w3.org/1999/02/22-rdf-syntax-ns#" xmlns:svg="http://www.w3.org/2000/svg" xmlns="http://www.w3.org/2000/svg" xmlns:sodipodi="http://sodipodi.sourceforge.net/DTD/sodipodi-0.dtd" xmlns:inkscape="http://www.inkscape.org/namespaces/inkscape" inkscape:version="1.0 (4035a4fb49, 2020-05-01)" sodipodi:docname="favorite.svg" viewBox="0 0 42.666668 42.666668" height="42.666668" width="42.666668" id="svg10" version="1.1">
  <metadata id="metadata16">
    <rdf:RDF>
      <cc:Work rdf:about="">
        <dc:format>image/svg+xml</dc:format>
        <dc:type rdf:resource="http://purl.org/dc/dcmitype/StillImage"/>
        <dc:title/>
      </cc:Work>
    </rdf:RDF>
  </metadata>
  <defs id="defs14"/>
  <sodipodi:namedview inkscape:current-layer="g18" inkscape:window-maximized="1" inkscape:window-y="-8" inkscape:window-x="1432" inkscape:cy="63.795396" inkscape:cx="80.739257" inkscape:zoom="4.1601561" showgrid="false" id="namedview12" inkscape:window-height="1017" inkscape:window-width="1920" inkscape:pageshadow="2" inkscape:pageopacity="0" guidetolerance="10" gridtolerance="10" objecttolerance="10" borderopacity="1" bordercolor="#666666" pagecolor="#ffffff"/>
  <g id="g18" inkscape:label="Image" inkscape:groupmode="layer">
    <g transform="translate(-0.06469004,-0.79739271)" id="g30">
      <path id="path36" d="m 20.000001,32.666668 v -6 H 14 c -4.9265365,0 -5.9999998,-0.436786 -5.9999998,-2.441361 0,-1.342748 1.5000001,-3.244136 3.3333338,-4.225306 2.531389,-1.354759 3.333333,-2.852463 3.333333,-6.225307 0,-2.442748 -0.6,-4.4413604 -1.333333,-4.4413604 -0.733334,0 -1.333334,-0.9 -1.333334,-2 0,-1.5873017 1.925926,-2.0000001 9.333334,-2.0000001 7.407408,0 9.333334,0.4126984 9.333334,2.0000001 0,1.1 -0.6,2 -1.333334,2 -0.733333,0 -1.333333,1.9986124 -1.333333,4.4413604 0,3.372844 0.801944,4.870548 3.333333,6.225307 1.833334,0.98117 3.333334,2.882558 3.333334,4.225306 0,2.004575 -1.073463,2.441361 -6,2.441361 h -6.000001 v 6 c 0,3.3 -0.6,6 -1.333333,6 -0.733333,0 -1.333333,-2.7 -1.333333,-6 z m 5.6,-11.600001 c -0.88,-0.88 -1.6,-3.88 -1.6,-6.666667 0,-4.177777 -0.467836,-5.0666664 -2.666667,-5.0666664 -2.198831,0 -2.666667,0.8888894 -2.666667,5.0666664 0,2.786667 -0.72,5.786667 -1.6,6.666667 -1.244444,1.244444 -0.296296,1.6 4.266667,1.6 4.562963,0 5.511111,-0.355556 4.266667,-1.6 z" style="fill:#999999;stroke-width:1.33333"/>
      <path id="path34" d="m 20.000001,32.666668 v -6 h -5.254645 c -6.7604218,0 -8.1731318,-2.312557 -3.6271,-5.937435 3.665518,-2.922782 5.011631,-10.334201 2.193329,-12.0760078 -2.979407,-1.8413742 0.593089,-3.3198917 8.021749,-3.3198917 7.42866,0 11.001155,1.4785175 8.02175,3.3198917 -2.818303,1.7418068 -1.47219,9.1532258 2.193329,12.0760078 4.546031,3.624878 3.133321,5.937435 -3.627101,5.937435 h -5.254645 v 6 c 0,3.3 -0.6,6 -1.333333,6 -0.733333,0 -1.333333,-2.7 -1.333333,-6 z m 6.333333,-11.440133 c -1.599085,-0.931381 -2.333333,-3.016474 -2.333333,-6.626121 0,-4.378191 -0.450035,-5.2670804 -2.666667,-5.2670804 -2.216632,0 -2.666667,0.8888894 -2.666667,5.2670804 0,3.609647 -0.734248,5.69474 -2.333333,6.626121 -1.78774,1.041263 -0.618611,1.359043 5,1.359043 5.618611,0 6.78774,-0.31778 5,-1.359043 z" style="fill:#5e5e5e;stroke-width:1.33333"/>
      <path id="path32" d="m 20.000001,32.666668 v -6 h -5.254645 c -6.705348,0 -8.1878647,-2.315295 -3.615319,-5.646162 2.612869,-1.903343 3.53663,-3.74558 3.53663,-7.053026 0,-2.462222 -0.609787,-4.8536369 -1.355082,-5.3142548 -2.979407,-1.8413742 0.593089,-3.3198917 8.021749,-3.3198917 7.42866,0 11.001155,1.4785175 8.02175,3.3198917 -0.745296,0.4606179 -1.355083,2.8520328 -1.355083,5.3142548 0,3.307446 0.923761,5.149683 3.536631,7.053026 4.572545,3.330867 3.090028,5.646162 -3.61532,5.646162 h -5.254645 v 6 c 0,3.3 -0.6,6 -1.333333,6 -0.733333,0 -1.333333,-2.7 -1.333333,-6 z M 27.638442,21.666667 C 26.478937,20.383334 25.335945,16.933334 25.098459,14 24.719169,9.3151447 24.261369,8.6666669 21.333334,8.6666669 c -2.928035,0 -3.385835,0.6484778 -3.765125,5.3333331 -0.237486,2.933334 -1.380478,6.383334 -2.539983,7.666667 -1.986311,2.198436 -1.621791,2.333334 6.305108,2.333334 7.926899,0 8.291419,-0.134898 6.305108,-2.333334 z" style="fill:#fff;stroke-width:1.33333"/>
    </g>
  </g>
</svg>