<svg width="32" height="32" viewBox="0 0 32 32" fill="none" xmlns="http://www.w3.org/2000/svg">
<path fill-rule="evenodd" clip-rule="evenodd" d="M8.24571 21.0487L7.56931 24.4307L10.9513 23.7543L11.8192 24.1981C13.0705 24.8378 14.4889 25.2 16 25.2C21.081 25.2 25.2 21.081 25.2 16C25.2 10.919 21.081 6.8 16 6.8C10.919 6.8 6.8 10.919 6.8 16C6.8 17.5111 7.16216 18.9295 7.80194 20.1808L8.24571 21.0487ZM4 28L5.30891 21.4554C4.47205 19.8187 4 17.9645 4 16C4 9.37258 9.37258 4 16 4C22.6274 4 28 9.37258 28 16C28 22.6274 22.6274 28 16 28C14.0355 28 12.1813 27.5279 10.5446 26.6911L4 28Z" fill="white"/>
</svg>
