<svg width="32" height="32" viewBox="0 0 32 32" fill="none" xmlns="http://www.w3.org/2000/svg">
<path d="M15.6974 6.16561C15.2836 5.56528 14.2484 5.56528 13.8342 6.16561L13.1825 7.11071C12.7687 7.71104 13.286 8.4619 14.1141 8.4619H15.4175C16.2455 8.4619 16.7629 7.7114 16.3491 7.11071L15.6974 6.16561Z" fill="black"/>
<path d="M23.9736 17.4136C23.6246 17.1383 23.2971 16.8813 23.031 16.6733L26.4834 15.6404C26.7798 15.5481 26.696 15.1797 26.3799 15.1853L20.0644 14.0379C20.0644 14.0379 21.7336 11.4413 21.1787 7.83505C20.6239 4.22846 16.0032 0.786145 15.2341 0.356781C14.6001 0.00285526 14.2566 0.0913367 13.7283 0.511535C13.1999 0.931734 8.94597 4.67087 8.68202 8.41C8.41764 12.1491 10.8951 16 10.8951 16L6.15405 21.3061C5.90483 21.4693 6.11827 21.7989 6.41758 21.7136L11.6394 20.1622L14.9369 31.6866C15.0156 31.9429 15.4618 31.9119 15.4884 31.6482L16.223 23.094C19.2384 22.34 25.5821 20.7339 26.1125 20.4354C26.584 20.1703 26.8926 19.8012 26.3041 19.295C25.825 18.8829 24.837 18.0947 23.9736 17.4136ZM14.8641 8.9853C13.226 9.02937 11.5085 8.72691 11.761 7.03836C12.1092 4.70858 13.8604 1.5296 13.8604 1.5296C13.8604 1.5296 14.4418 0.420939 15.1549 1.37238C15.8685 2.32382 17.7179 5.95437 17.7705 7.25974C17.8231 8.56475 16.5021 8.94089 14.8641 8.9853ZM20.1145 19.6947L16.3227 21.936L16.6018 18.6883L18.0386 18.2614L18.0614 18.2558C18.4946 18.2744 20.9354 18.7049 20.1145 19.6947Z" fill="black"/>
</svg>
