<svg viewBox="0 0 32 32" fill="none" xmlns="http://www.w3.org/2000/svg">
<path d="M5.19935 16.0002C5.19935 13.7202 7.05268 11.8668 9.33268 11.8668H14.666V9.3335H9.33268C5.65268 9.3335 2.66602 12.3202 2.66602 16.0002C2.66602 19.6802 5.65268 22.6668 9.33268 22.6668H14.666V20.1335H9.33268C7.05268 20.1335 5.19935 18.2802 5.19935 16.0002ZM10.666 17.3335H21.3327V14.6668H10.666V17.3335ZM22.666 9.3335H17.3327V11.8668H22.666C24.946 11.8668 26.7994 13.7202 26.7994 16.0002C26.7994 18.2802 24.946 20.1335 22.666 20.1335H17.3327V22.6668H22.666C26.346 22.6668 29.3327 19.6802 29.3327 16.0002C29.3327 12.3202 26.346 9.3335 22.666 9.3335Z" fill="#848484"/>
</svg>
