<svg width="32" height="32" viewBox="0 0 32 32" fill="none" xmlns="http://www.w3.org/2000/svg">
<path d="M5.20033 16C5.20033 13.72 7.05366 11.8667 9.33366 11.8667H14.667V9.33333H9.33366C5.65366 9.33333 2.66699 12.32 2.66699 16C2.66699 19.68 5.65366 22.6667 9.33366 22.6667H14.667V20.1333H9.33366C7.05366 20.1333 5.20033 18.28 5.20033 16ZM10.667 17.3333H21.3337V14.6667H10.667V17.3333ZM22.667 9.33333H17.3337V11.8667H22.667C24.947 11.8667 26.8003 13.72 26.8003 16C26.8003 18.28 24.947 20.1333 22.667 20.1333H17.3337V22.6667H22.667C26.347 22.6667 29.3337 19.68 29.3337 16C29.3337 12.32 26.347 9.33333 22.667 9.33333Z" fill="black"/>
</svg>
