<svg width="44" height="44" viewBox="0 0 44 44" fill="none" xmlns="http://www.w3.org/2000/svg">
<path fill-rule="evenodd" clip-rule="evenodd" d="M22 42C33.0457 42 42 33.0457 42 22C42 10.9543 33.0457 2 22 2C10.9543 2 2 10.9543 2 22C2 33.0457 10.9543 42 22 42ZM16.4381 16.2559V31.9995H11.1979V16.2559H16.4381ZM16.7835 11.3869C16.7835 12.8974 15.6459 14.1066 13.8191 14.1066H13.7848C12.0259 14.1066 10.8889 12.8979 10.8889 11.3869C10.8889 9.84165 12.0602 8.66667 13.8539 8.66667C15.6459 8.66667 16.7487 9.84165 16.7835 11.3869ZM24.5778 31.9995H19.3382C19.3382 32 19.4067 17.7332 19.3382 16.2564H24.5778V18.4851C25.2744 17.4121 26.5207 15.8867 29.3005 15.8867C32.7481 15.8867 35.3328 18.1371 35.3328 22.9724V31.9995H30.0932V23.5781C30.0932 21.4614 29.3343 20.0179 27.4389 20.0179C25.9912 20.0179 25.1289 20.9911 24.7502 21.9318C24.6121 22.2672 24.5778 22.7381 24.5778 23.2084V31.9995Z" fill="white"/>
</svg>
