<svg width="32" height="32" viewBox="0 0 32 32" xmlns="http://www.w3.org/2000/svg">
<path fill-rule="evenodd" clip-rule="evenodd" d="M22.25 22.5167V14.7692C22.25 11.2076 20.4187 8.63911 17.5968 7.96349C16.9541 7.80961 15.0702 7.80435 14.4017 7.96386C11.5688 8.63975 9.75 11.192 9.75 14.7692V22.5167L8.42973 23.8462H23.5703L22.25 22.5167ZM27 24.4615V25.8462H5V24.4615L7.75 21.6923V14.7692C7.75 10.5046 9.99125 6.96 13.9375 6.01846V5.07692C13.9375 3.92769 14.8588 3 16 3C17.1412 3 18.0625 3.92769 18.0625 5.07692V6.01846C21.995 6.96 24.25 10.5185 24.25 14.7692V21.6923L27 24.4615ZM18.75 27.2308H13.25C13.25 27.4421 13.2736 27.6481 13.3182 27.8462C13.4393 28.3831 13.7153 28.8618 14.0974 29.2308C14.5903 29.7067 15.2595 30 16 30C16.7338 30 17.4028 29.7067 17.8973 29.2308C18.2806 28.8618 18.5589 28.3831 18.6811 27.8462C18.7262 27.6481 18.75 27.4421 18.75 27.2308Z" fill="white"/>
</svg>
