<svg width="16" height="19" viewBox="0 0 16 19" fill="none" xmlns="http://www.w3.org/2000/svg">
<path d="M1.34961 0.582031H7.0918V1.55859L5.85156 1.65625L5.56836 1.93945V8.94141C5.56836 10.276 5.82227 11.2298 6.33008 11.8027C6.83789 12.3757 7.67122 12.6621 8.83008 12.6621C9.89779 12.6621 10.6693 12.3594 11.1445 11.7539C11.6263 11.1419 11.8672 10.1426 11.8672 8.75586V2.01758L11.5645 1.67578L10.2852 1.55859V0.582031H14.8262V1.55859L13.6055 1.67578L13.332 2.01758V8.96094C13.332 10.8164 12.9154 12.1608 12.082 12.9941C11.2487 13.8275 9.9043 14.2441 8.04883 14.2441C7.07878 14.2441 6.22591 14.1042 5.49023 13.8242C4.76107 13.5378 4.18815 13.1309 3.77148 12.6035C3.45247 12.1868 3.22461 11.7116 3.08789 11.1777C2.95768 10.6374 2.89258 9.86589 2.89258 8.86328V1.93945L2.60938 1.65625L1.34961 1.55859V0.582031Z" fill="black"/>
<path d="M0.949219 17.0859H15.0508V18.9023H0.949219V17.0859Z" fill="black"/>
</svg>
