<svg width="32" height="32" viewBox="0 0 32 32" fill="none" xmlns="http://www.w3.org/2000/svg">
<path d="M16.0001 20.2666C18.3565 20.2666 20.2667 18.3564 20.2667 15.9999C20.2667 13.6435 18.3565 11.7333 16.0001 11.7333C13.6436 11.7333 11.7334 13.6435 11.7334 15.9999C11.7334 18.3564 13.6436 20.2666 16.0001 20.2666Z" fill="white"/>
<path d="M12.0003 2.66663L9.56033 5.33329H5.33366C3.86699 5.33329 2.66699 6.53329 2.66699 7.99996V24C2.66699 25.4666 3.86699 26.6666 5.33366 26.6666H26.667C28.1337 26.6666 29.3337 25.4666 29.3337 24V7.99996C29.3337 6.53329 28.1337 5.33329 26.667 5.33329H22.4403L20.0003 2.66663H12.0003ZM16.0003 22.6666C12.3203 22.6666 9.33366 19.68 9.33366 16C9.33366 12.32 12.3203 9.33329 16.0003 9.33329C19.6803 9.33329 22.667 12.32 22.667 16C22.667 19.68 19.6803 22.6666 16.0003 22.6666Z" fill="white"/>
</svg>
