<svg viewBox="0 0 44 44" xmlns="http://www.w3.org/2000/svg">
<path d="M2 35.9949C4.35562 35.796 9.90393 34.2159 12.8186 32.304C6.88443 28.2957 0.579882 18.7816 4.56375 5.89552C10.7963 13.792 17.5271 14.5406 21.6693 15.276C21.6003 13.4402 21.3187 9.08414 24.2789 6.25545C26.1621 4.45581 28.3515 3.73426 30.8089 4.08674C32.6602 4.35263 34.2404 5.26328 35.5627 6.72667C35.6781 6.85421 35.7839 6.87992 35.9382 6.8427C37.5932 6.44489 39.157 5.78254 40.633 4.85937C40.7117 4.80998 40.8087 4.68414 40.8767 4.74876C40.9554 4.82352 40.8618 4.95308 40.8287 5.05152C40.1907 6.95129 39.1042 8.45427 37.5908 9.57837C37.5479 9.61017 37.4856 9.6264 37.4656 9.71842C38.2589 9.6122 39.0212 9.43189 39.7744 9.2022C40.5316 8.97082 41.2675 8.67043 42 8.3423C41.9857 8.40894 41.9635 8.46002 41.9353 8.50636C41.3963 9.39062 40.7883 10.2133 40.1199 10.9792C39.4843 11.7075 38.7967 12.3709 38.0605 12.971C37.9833 13.0342 37.9478 13.1002 37.9493 13.2152C38.268 38.4299 17.4554 45.393 2 35.9949Z"/>
</svg>
