<svg width="32" height="32" viewBox="0 0 32 32" fill="none" xmlns="http://www.w3.org/2000/svg">
<path fill-rule="evenodd" clip-rule="evenodd" d="M23.3333 8C23.3333 8.73638 22.7364 9.33333 22 9.33333C21.2636 9.33333 20.6667 8.73638 20.6667 8C20.6667 7.26362 21.2636 6.66667 22 6.66667C22.7364 6.66667 23.3333 7.26362 23.3333 8ZM26 8C26 10.2091 24.2091 12 22 12C20.8091 12 19.7398 11.4796 19.007 10.6538L9.91949 15.1976C9.97228 15.4568 10 15.7252 10 16C10 16.2748 9.97228 16.5432 9.91948 16.8025L19.007 21.3462C19.7398 20.5204 20.8091 20 22 20C24.2091 20 26 21.7909 26 24C26 26.2091 24.2091 28 22 28C19.7909 28 18 26.2091 18 24C18 23.9417 18.0012 23.8837 18.0037 23.826L8.53701 19.0927C7.84665 19.6596 6.96307 20 6 20C3.79086 20 2 18.2091 2 16C2 13.7909 3.79086 12 6 12C6.96309 12 7.84668 12.3404 8.53705 12.9074L18.0037 8.174C18.0012 8.1163 18 8.0583 18 8C18 5.79086 19.7909 4 22 4C24.2091 4 26 5.79086 26 8ZM6 17.3333C6.73638 17.3333 7.33333 16.7364 7.33333 16C7.33333 15.2636 6.73638 14.6667 6 14.6667C5.26362 14.6667 4.66667 15.2636 4.66667 16C4.66667 16.7364 5.26362 17.3333 6 17.3333ZM22 25.3333C22.7364 25.3333 23.3333 24.7364 23.3333 24C23.3333 23.2636 22.7364 22.6667 22 22.6667C21.2636 22.6667 20.6667 23.2636 20.6667 24C20.6667 24.7364 21.2636 25.3333 22 25.3333Z" fill="white"/>
</svg>
