<svg width="12" height="14" viewBox="0 0 12 14" fill="none" xmlns="http://www.w3.org/2000/svg">
<path d="M4.39844 12.8574L4.4668 12.8672C4.87044 12.8867 5.16992 12.8965 5.36523 12.8965C6.53711 12.8965 7.38997 12.6849 7.92383 12.2617C8.45768 11.832 8.72461 11.1452 8.72461 10.2012C8.72461 9.34831 8.47396 8.71354 7.97266 8.29688C7.47135 7.8737 6.7194 7.66211 5.7168 7.66211C5.42383 7.66211 5.17969 7.66536 4.98438 7.67188C4.78906 7.67839 4.59375 7.68815 4.39844 7.70117V12.8574ZM4.4082 6.53906C4.46029 6.54557 4.52539 6.55208 4.60352 6.55859C4.68164 6.55859 4.79557 6.55859 4.94531 6.55859C5.98698 6.55859 6.75195 6.35026 7.24023 5.93359C7.73503 5.51042 7.98242 4.85286 7.98242 3.96094C7.98242 3.17969 7.75456 2.60026 7.29883 2.22266C6.8431 1.84505 6.14323 1.65625 5.19922 1.65625C5.04297 1.65625 4.79557 1.66927 4.45703 1.69531H4.39844L4.4082 6.53906ZM0.296875 0.582031H6.30273C7.77409 0.582031 8.88086 0.845703 9.62305 1.37305C10.3652 1.89388 10.7363 2.67513 10.7363 3.7168C10.7363 4.50456 10.4954 5.16536 10.0137 5.69922C9.5319 6.22656 8.82227 6.61393 7.88477 6.86133C9.0306 6.88086 9.92253 7.17383 10.5605 7.74023C11.1986 8.30664 11.5176 9.08789 11.5176 10.084C11.5176 11.347 11.0846 12.3171 10.2188 12.9941C9.35286 13.6647 8.10612 14 6.47852 14H0.296875V13.0234L1.47852 12.916L1.80078 12.6035V1.93945L1.47852 1.65625L0.296875 1.55859V0.582031Z" fill="black"/>
</svg>
