<svg viewBox="0 0 32 32" fill="none" xmlns="http://www.w3.org/2000/svg">
<path d="M22.0007 8.00016V23.3335C22.0007 26.2802 19.614 28.6668 16.6673 28.6668C13.7207 28.6668 11.334 26.2802 11.334 23.3335V6.66683C11.334 4.82683 12.8273 3.3335 14.6673 3.3335C16.5073 3.3335 18.0007 4.82683 18.0007 6.66683V20.6668C18.0007 21.4002 17.4007 22.0002 16.6673 22.0002C15.934 22.0002 15.334 21.4002 15.334 20.6668V8.00016H13.334V20.6668C13.334 22.5068 14.8273 24.0002 16.6673 24.0002C18.5073 24.0002 20.0007 22.5068 20.0007 20.6668V6.66683C20.0007 3.72016 17.614 1.3335 14.6673 1.3335C11.7207 1.3335 9.33398 3.72016 9.33398 6.66683V23.3335C9.33398 27.3868 12.614 30.6668 16.6673 30.6668C20.7207 30.6668 24.0007 27.3868 24.0007 23.3335V8.00016H22.0007Z" fill="#848484"/>
</svg>
