<svg viewBox="0 0 32 32" fill="none" xmlns="http://www.w3.org/2000/svg">
<path fill-rule="evenodd" clip-rule="evenodd" d="M22.7777 26.8765C24.075 26.2979 25.4074 25.7037 28 27C28.5 27 29 26.5 29.5 26C28.2037 23.4074 28.7979 22.075 29.3765 20.7777C29.6905 20.0735 30 19.3796 30 18.5C30 17.5207 29.4694 16.6353 28.6945 16C29.4694 15.3647 30 14.4793 30 13.5C30 12.6204 29.6905 11.9265 29.3765 11.2223C28.7979 9.92495 28.2037 8.59265 29.5 6C29 5.5 28.5 5 28 5C25.4074 6.29632 24.075 5.70213 22.7777 5.12355C22.0735 4.80947 21.3796 4.5 20.5 4.5C19.8626 4.5 19.2649 4.72478 18.7502 5.0954C18.0333 4.41644 17.0653 4 16 4C14.9347 4 13.9667 4.41644 13.2498 5.0954C12.7351 4.72478 12.1374 4.5 11.5 4.5C10.6204 4.5 9.9265 4.80947 9.22228 5.12355C8.38764 5.49578 7.53853 5.87447 6.34864 5.75206L6.34864 5.75206C5.68901 5.68419 4.92467 5.46233 4.00001 5.00001L4 5C3.5 5 3 5.5 2.5 6C3.79632 8.59265 3.20213 9.92495 2.62355 11.2223C2.30947 11.9265 2 12.6204 2 13.5C2 14.4793 2.53058 15.3647 3.3055 16C2.53058 16.6353 2 17.5207 2 18.5C2 19.3796 2.30947 20.0735 2.62355 20.7777C3.20213 22.075 3.79632 23.4074 2.5 26C3 26.5 3.5 27 4 27C6.59265 25.7037 7.92495 26.2979 9.22228 26.8765C9.9265 27.1905 10.6204 27.5 11.5 27.5C12.1374 27.5 12.7351 27.2752 13.2498 26.9046C13.9667 27.5836 14.9347 28 16 28C17.0653 28 18.0333 27.5836 18.7502 26.9046C19.2649 27.2752 19.8626 27.5 20.5 27.5C21.3796 27.5 22.0735 27.1905 22.7777 26.8765ZM26 9H6V23H26V9Z" fill="black"/>
</svg>
