<svg width="61" height="38" viewBox="0 0 61 38" fill="none" xmlns="http://www.w3.org/2000/svg">
<g clip-path="url(#clip0)">
<path d="M0 26.5948C0.330942 26.2759 0.275121 25.8203 0.410687 25.4341C1.25599 23.0117 3.86166 21.445 6.37961 21.9045C9.01519 22.3858 10.8673 24.4933 10.8792 27.1454C10.8912 29.8887 8.80586 32.1387 6.11845 32.4636C3.5028 32.7785 1.11643 31.1603 0.303032 28.5596C0.221293 28.3002 0.338917 27.9436 0 27.7773C0 27.3831 0 26.989 0 26.5948Z" fill="#D6A94F"/>
<path d="M19.4838 27.1374C19.5097 21.1775 24.3622 16.4674 30.4587 16.5348C35.999 16.5962 40.9252 20.9814 40.9591 26.9948C40.993 33.226 36.2183 37.7975 30.1935 37.7955C24.103 37.7935 19.5017 33.0002 19.4838 27.1374Z" fill="#D6A94F"/>
<path d="M30.2394 10.8502C27.245 10.8641 24.8746 8.53477 24.8626 5.56572C24.8507 2.59667 27.2789 0.203995 30.3052 0.203995C33.1063 0.205975 35.5784 2.63628 35.6123 5.42509C35.6462 8.41989 33.2538 10.8343 30.2394 10.8502Z" fill="#D6A94F"/>
<path d="M8.71811 11.3235C8.77593 8.38418 11.2082 6.0648 14.1946 6.10441C17.0575 6.14403 19.5515 8.67733 19.4658 11.4582C19.3721 14.4946 16.9757 16.7942 13.9514 16.7506C10.9829 16.709 8.6603 14.3005 8.71811 11.3235Z" fill="#D6A94F"/>
<path d="M46.34 16.7527C43.3635 16.7467 41.005 14.3798 41.013 11.4088C41.021 8.45755 43.4911 6.07478 46.5115 6.10449C49.3165 6.13222 51.7547 8.58035 51.7567 11.3711C51.7607 14.3719 49.3564 16.7586 46.34 16.7527Z" fill="#D6A94F"/>
<path d="M49.5736 27.1334C49.5796 24.1664 52.0138 21.8292 55.078 21.851C57.913 21.8708 60.3213 24.2773 60.3233 27.0938C60.3253 30.0807 57.8831 32.5189 54.9106 32.4971C51.962 32.4773 49.5677 30.0728 49.5736 27.1334Z" fill="#D6A94F"/>
</g>
<defs>
<clipPath id="clip0">
<rect width="61" height="38" fill="white"/>
</clipPath>
</defs>
</svg>
