<svg viewBox="0 0 44 44" xmlns="http://www.w3.org/2000/svg">
<path fill-rule="evenodd" clip-rule="evenodd" d="M34 7H10C8.34315 7 7 8.34315 7 10V34C7 35.6569 8.34315 37 10 37H34C35.6569 37 37 35.6569 37 34V10C37 8.34315 35.6569 7 34 7ZM10 4C6.68629 4 4 6.68629 4 10V34C4 37.3137 6.68629 40 10 40H34C37.3137 40 40 37.3137 40 34V10C40 6.68629 37.3137 4 34 4H10Z"/>
<path fill-rule="evenodd" clip-rule="evenodd" d="M22 29C25.866 29 29 25.866 29 22C29 18.134 25.866 15 22 15C18.134 15 15 18.134 15 22C15 25.866 18.134 29 22 29ZM22 32C27.5228 32 32 27.5228 32 22C32 16.4772 27.5228 12 22 12C16.4772 12 12 16.4772 12 22C12 27.5228 16.4772 32 22 32Z"/>
<path fill-rule="evenodd" clip-rule="evenodd" d="M32 12.5C32.2761 12.5 32.5 12.2761 32.5 12C32.5 11.7239 32.2761 11.5 32 11.5C31.7239 11.5 31.5 11.7239 31.5 12C31.5 12.2761 31.7239 12.5 32 12.5ZM29.5 12C29.5 10.6193 30.6193 9.5 32 9.5C33.3807 9.5 34.5 10.6193 34.5 12C34.5 13.3807 33.3807 14.5 32 14.5C30.6193 14.5 29.5 13.3807 29.5 12Z"/>
</svg>
