<svg width="32" height="32" viewBox="0 0 32 32" fill="none" xmlns="http://www.w3.org/2000/svg">
<path d="M26.4262 5.35528C26.2828 5.20878 22.8253 1.77778 16 1.77778C9.17468 1.77778 5.71715 5.20878 5.57372 5.35528C5.41985 5.5115 5.33331 5.72312 5.33331 5.94445V15.5144C5.33331 22.1786 9.51601 28.0722 15.7404 30.1791C15.8245 30.2076 15.9126 30.2222 16 30.2222C16.0873 30.2222 16.1755 30.2076 16.2596 30.1791C22.4839 28.0722 26.6666 22.1786 26.6666 15.5144V5.94445C26.6666 5.72312 26.5801 5.5115 26.4262 5.35528ZM9.12096 13.1523C8.78122 12.839 8.61536 12.3898 8.61536 11.7778C8.61536 9.93939 10.0873 8.44445 11.8974 8.44445C13.7075 8.44445 15.1795 9.93939 15.1795 11.7778C15.1795 12.3898 15.0136 12.839 14.6739 13.1523C14.1448 13.6383 13.4441 13.5732 12.7388 13.5006C12.2195 13.4485 11.5753 13.4485 11.0561 13.5006C10.3662 13.5714 9.65463 13.643 9.12096 13.1523ZM16 23.5645C13.3437 23.5645 10.2564 21.3803 10.2564 18.5645C10.2564 17.8411 10.48 17.3381 10.9214 17.0696C11.6682 16.6163 12.5344 17.0867 13.5369 17.6319C14.3398 18.0689 15.25 18.5645 16 18.5645C16.75 18.5645 17.6603 18.0689 18.4631 17.6319C19.4655 17.0858 20.3317 16.6195 21.0785 17.0696C21.52 17.3381 21.7436 17.8411 21.7436 18.5645C21.7436 21.3803 18.6563 23.5645 16 23.5645ZM22.879 13.1523C22.3499 13.6383 21.6492 13.5732 20.9439 13.5006C20.4247 13.4485 19.7804 13.4485 19.2612 13.5006C18.5729 13.5714 17.8606 13.643 17.3261 13.1523C16.9863 12.839 16.8205 12.3898 16.8205 11.7778C16.8205 9.93939 18.2924 8.44445 20.1025 8.44445C21.9126 8.44445 23.3846 9.93939 23.3846 11.7778C23.3846 12.3898 23.2187 12.839 22.879 13.1523Z" fill="black"/>
</svg>
