<svg width="32" height="32" viewBox="0 0 32 32" fill="none" xmlns="http://www.w3.org/2000/svg">
<path clip-rule="evenodd" d="M15.9998 6.38383L15.853 6.23489C12.9167 3.25482 8.13857 3.25526 5.20225 6.23489C2.26592 9.21452 2.26592 14.0631 5.20225 17.043L15.9998 28L26.7976 17.043C29.7341 14.0633 29.7341 9.21452 26.7976 6.23489C23.8613 3.25482 19.0831 3.25526 16.1468 6.23489L15.9998 6.38383ZM15.9998 23.8054L24.7784 14.8974C26.555 13.0947 26.5551 10.1833 24.7784 8.38057C22.965 6.54009 19.9799 6.53986 18.166 8.38049L15.9983 10.5769L13.8338 8.3805C12.0203 6.54001 9.03536 6.53986 7.22148 8.38049C5.44502 10.1832 5.44489 13.0944 7.2215 14.8974C7.22152 14.8974 7.22149 14.8974 7.2215 14.8974L15.9998 23.8054Z" fill="white"/>
</svg>