<svg width="32" height="32" viewBox="0 0 32 32" fill="none" xmlns="http://www.w3.org/2000/svg">
<path fill-rule="evenodd" clip-rule="evenodd" d="M15.2787 4.87564C15.8777 6.41144 15.1637 8.16042 13.684 8.7821C12.3944 9.32386 11.2232 10.1122 10.2257 11.0927C9.0811 12.2177 8.16952 13.5914 7.57064 15.1269C6.97165 16.6627 5.28649 17.4038 3.80673 16.7821C2.32697 16.1604 1.61296 14.4114 2.21195 12.8756C3.1263 10.5313 4.51429 8.44282 6.25051 6.73626C7.76415 5.24848 9.54576 4.0477 11.5148 3.22047C12.9946 2.59879 14.6797 3.33984 15.2787 4.87564Z" fill="black"/>
<rect width="1.83613" height="16.2458" transform="matrix(0.693846 -0.720123 0.693846 0.720123 11.356 14.0366)" fill="black"/>
<rect width="3.37515" height="10.463" rx="1.68757" transform="matrix(0.693846 -0.720123 0.693846 0.720123 18.1895 22.2373)" fill="black"/>
<path fill-rule="evenodd" clip-rule="evenodd" d="M10.1906 13C10.8791 13 11.5629 12.3991 11.5629 11.5C11.5629 10.6009 10.8791 10 10.1906 10C9.50217 10 8.81836 10.6009 8.81836 11.5C8.81836 12.3991 9.50217 13 10.1906 13ZM10.1906 15C12.0531 15 13.5629 13.433 13.5629 11.5C13.5629 9.567 12.0531 8 10.1906 8C8.32818 8 6.81836 9.567 6.81836 11.5C6.81836 13.433 8.32818 15 10.1906 15Z" fill="black"/>
<path fill-rule="evenodd" clip-rule="evenodd" d="M16.7213 4.87417C16.1223 6.40997 16.8363 8.15895 18.316 8.78063C19.6056 9.32239 20.7768 10.1107 21.7743 11.0912C22.9189 12.2163 23.8305 13.59 24.4294 15.1255C25.0284 16.6613 26.7135 17.4023 28.1933 16.7806C29.673 16.159 30.387 14.41 29.788 12.8742C28.8737 10.5298 27.4857 8.44136 25.7495 6.7348C24.2358 5.24702 22.4542 4.04624 20.4852 3.219C19.0054 2.59733 17.3203 3.33837 16.7213 4.87417Z" fill="black"/>
<rect width="1.83613" height="16.2458" transform="matrix(-0.693846 -0.720123 -0.693846 0.720123 20.644 14.0366)" fill="black"/>
<rect width="3.37515" height="10.4102" rx="1.68757" transform="matrix(-0.693846 -0.720123 -0.693846 0.720123 13.8105 22.2373)" fill="black"/>
<path fill-rule="evenodd" clip-rule="evenodd" d="M21.8094 13C21.1209 13 20.4371 12.3991 20.4371 11.5C20.4371 10.6009 21.1209 10 21.8094 10C22.4978 10 23.1816 10.6009 23.1816 11.5C23.1816 12.3991 22.4978 13 21.8094 13ZM21.8094 15C19.9469 15 18.4371 13.433 18.4371 11.5C18.4371 9.567 19.9469 8 21.8094 8C23.6718 8 25.1816 9.567 25.1816 11.5C25.1816 13.433 23.6718 15 21.8094 15Z" fill="black"/>
</svg>
