<svg viewBox="0 0 32 32" fill="none" xmlns="http://www.w3.org/2000/svg">
<path d="M16.3102 18.159H24.4361C23.5657 22.0477 20.3613 24.7726 16.3102 24.7726C11.3583 24.7726 7.32958 20.8374 7.32958 16C7.32958 11.1625 11.3583 7.22732 16.3102 7.22732C18.1354 7.22732 19.8915 7.75846 21.3887 8.76368L23.8923 5.20461C21.6551 3.70304 19.0333 2.90918 16.3102 2.90918C8.92074 2.90918 2.90906 8.78186 2.90906 16.0002C2.90906 23.2186 8.92074 29.091 16.3102 29.091C19.8853 29.091 23.162 27.7074 25.537 25.1947C27.8289 22.7704 29.0909 19.5049 29.0909 16.0002V13.8411H16.3102V18.159Z" fill="white"/>
</svg>
