<svg width="32" height="32" viewBox="0 0 32 32" fill="none" xmlns="http://www.w3.org/2000/svg">
<path fill-rule="evenodd" clip-rule="evenodd" d="M5 4C3.34315 4 2 5.34315 2 7V13C3.65685 13 5 14.3431 5 16C5 17.6569 3.65685 19 2 19V25C2 26.6569 3.34315 28 5 28H27C28.6569 28 30 26.6569 30 25V19C28.3431 19 27 17.6569 27 16C27 14.3431 28.3431 13 30 13V7C30 5.34315 28.6569 4 27 4H5ZM17.7961 13.5279L16 8L14.2039 13.5279H8.39155L13.0938 16.9443L11.2977 22.4721L16 19.0557L20.7023 22.4721L18.9062 16.9443L23.6085 13.5279H17.7961Z" fill="black"/>
</svg>
