<svg width="22" height="24" viewBox="0 0 22 24" fill="none" xmlns="http://www.w3.org/2000/svg">
<path d="M19.0002 0V2.66667H16.3335V0H5.66683V2.66667H3.00016V0H0.333496V24H3.00016V21.3333H5.66683V24H16.3335V21.3333H19.0002V24H21.6668V0H19.0002ZM5.66683 18.6667H3.00016V16H5.66683V18.6667ZM5.66683 13.3333H3.00016V10.6667H5.66683V13.3333ZM5.66683 8H3.00016V5.33333H5.66683V8ZM19.0002 18.6667H16.3335V16H19.0002V18.6667ZM19.0002 13.3333H16.3335V10.6667H19.0002V13.3333ZM19.0002 8H16.3335V5.33333H19.0002V8Z" fill="black"/>
</svg>
