<svg width="26" height="26" viewBox="0 0 26 26" fill="none" xmlns="http://www.w3.org/2000/svg">
<path d="M18.6667 23.6265H2.66667V7.33317H12V4.6665H2.66667C1.2 4.6665 0 5.8665 0 7.33317V23.3332C0 24.7998 1.2 25.9998 2.66667 25.9998H18.6667C20.1333 25.9998 21.3333 24.7998 21.3333 23.3332V13.9998H18.6667V23.6265Z" fill="black"/>
<path d="M21.3332 0.666504H18.6665V4.6665H14.6665C14.6798 4.67984 14.6665 7.33317 14.6665 7.33317H18.6665V11.3198C18.6798 11.3332 21.3332 11.3198 21.3332 11.3198V7.33317H25.3332V4.6665H21.3332V0.666504Z" fill="black"/>
<path d="M16.0002 10H5.3335V12.6667H16.0002V10Z" fill="black"/>
<path d="M5.3335 14V16.6667H16.0002V14H12.0002H5.3335Z" fill="black"/>
<path d="M16.0002 18H5.3335V20.6667H16.0002V18Z" fill="black"/>
</svg>
