<svg width="128" height="128" viewBox="0 0 128 128" fill="none" xmlns="http://www.w3.org/2000/svg">
<g clip-path="url(#clip0)">
<path fill-rule="evenodd" clip-rule="evenodd" d="M84.617 79.795C79.572 78.1373 79.6145 76.7628 78.7713 72.0518C76.6953 73.4333 74.4915 74.588 72.217 75.431C66.7753 77.45 62.6868 77.443 57.2593 75.4168C55.998 74.9493 54.765 74.3825 53.5605 73.7448V89.465C63.934 95.8128 78.3108 92.5895 84.617 79.795Z" fill="#FFEFD5"/>
<path fill-rule="evenodd" clip-rule="evenodd" d="M53.561 73.7455V64.642C53.561 61.8508 51.2722 59.5625 48.4735 59.5625H38.9007H25.1332C22.3415 59.5625 20.0527 61.8508 20.0527 64.642V90.2167L22.1855 90.8897C24.304 91.5557 26.2172 92.7032 26.2172 94.9137V98.2717C26.2172 101.75 26.5432 101.842 29.3065 101.842H38.284C39.2335 101.842 40.013 102.621 40.013 103.571V114.764H48.4732C51.272 114.764 53.5607 112.476 53.5607 109.678V89.4657V73.7455H53.561Z" fill="#B5CDCD"/>
<path fill-rule="evenodd" clip-rule="evenodd" d="M38.2832 101.842H29.3057C26.5422 101.842 26.2164 101.75 26.2164 98.2711V94.9131C26.2164 92.7029 24.3032 91.5551 22.1847 90.8891L20.0519 90.2161L18.1247 89.6139C15.2762 88.7211 14.5889 90.3011 14.8014 93.5529V103.57V117.888C14.8014 122.061 18.2167 125.482 22.3902 125.482H40.0122V114.764V103.57C40.0122 102.621 39.2327 101.842 38.2832 101.842Z" fill="#FFEFD5"/>
<path fill-rule="evenodd" clip-rule="evenodd" d="M112.663 115.281C109.566 101.303 108.582 86.2702 87.7357 80.7089C86.5239 80.3829 85.4967 80.0854 84.6179 79.7949C78.3117 92.5894 63.9349 95.8129 53.5614 89.4652V109.677C53.5614 112.475 51.2727 114.763 48.4739 114.763H40.0137V125.482H104.89C112.422 125.483 114.371 122.989 112.663 115.281Z" fill="#2EB9FA"/>
<path fill-rule="evenodd" clip-rule="evenodd" d="M94.6851 36.46C77.1056 43.2327 51.7744 23.5735 34.8184 36.3254V46.4704C34.8184 50.6432 36.3346 55.2339 38.8996 59.5624H48.4724C51.2711 59.5624 53.5599 61.8507 53.5599 64.6419V73.7454C54.7644 74.3829 55.9974 74.9497 57.2586 75.4174C62.6861 77.4437 66.7746 77.4507 72.2164 75.4317C74.4909 74.5887 76.6946 73.4339 78.7706 72.0524C87.9606 65.9387 94.6851 55.2837 94.6851 46.4707V36.46Z" fill="#FFEFD5"/>
<path fill-rule="evenodd" clip-rule="evenodd" d="M92.2343 19.9666C96.2448 9.82883 98.3633 6.05283 97.1376 2.51758C80.4508 11.9256 79.3951 5.09633 68.0793 4.03358C47.9703 2.13483 33.82 12.5491 34.8193 36.3243C51.7753 23.5723 77.1066 43.2316 94.6861 36.4588C101.46 33.8518 107.086 27.3271 110.636 13.5053C110.969 10.4381 99.5326 20.7033 92.2343 19.9666Z" fill="#EFC268"/>
<path d="M115.121 114.736C114.826 113.407 114.544 112.036 114.272 110.709C112.941 104.235 111.566 97.54 107.996 91.7528C103.899 85.1118 97.4835 80.7038 88.3838 78.276C87.3948 78.012 86.4178 77.7385 85.5405 77.4545C85.4408 77.415 85.34 77.381 85.2383 77.355C83.9785 76.9315 82.961 76.4843 82.4773 76.0093C82.0223 75.5625 81.8198 74.7768 81.5305 73.1895C90.5843 66.5785 97.2035 55.8618 97.2035 46.47V38.1103C104.655 34.5073 109.867 26.62 113.074 14.1325C113.104 14.016 113.126 13.8975 113.139 13.7778C113.269 12.583 112.791 11.5058 111.862 10.8963C110.039 9.69976 108.179 10.7588 104.472 12.8695C102.14 14.1975 99.0013 15.985 96.1833 16.898C96.2983 16.6158 96.4105 16.3408 96.52 16.0723C99.3928 9.03001 100.835 5.49551 99.5163 1.69301C99.272 0.987763 98.727 0.427263 98.029 0.163013C97.3313 -0.101237 96.5515 -0.0419866 95.9013 0.324513C85.2065 6.35376 81.9458 5.24726 77.0103 3.57176C74.6655 2.77576 72.008 1.87376 68.3163 1.52726C57.0443 0.462263 47.7233 3.09276 41.3605 9.13251C34.9535 15.2135 31.8223 24.629 32.3015 36.3628V46.4695C32.3015 49.8138 33.1463 53.4118 34.7645 57.0435H25.1333C20.9438 57.0435 17.535 60.4518 17.535 64.641V86.9068C16.1615 86.7233 14.9968 86.9983 14.062 87.7335C12.2638 89.1473 12.1598 91.615 12.2848 93.6328V117.888C12.2848 123.464 16.8185 128 22.3913 128H40.0133H57.607C58.9975 128 60.1248 126.873 60.1248 125.482C60.1248 124.092 58.9975 122.965 57.607 122.965H42.531V117.281H48.4733C52.6668 117.281 56.0788 113.87 56.0788 109.677V93.5068C58.8573 94.5845 61.811 95.136 64.7788 95.136C67.009 95.136 69.2478 94.8253 71.4243 94.195C77.4635 92.446 82.5188 88.4355 85.85 82.8023C86.246 82.9138 86.6553 83.026 87.0858 83.141C104.417 87.7648 106.698 98.867 109.339 111.722C109.615 113.067 109.901 114.458 110.204 115.825C110.891 118.926 110.897 120.925 110.221 121.767C109.583 122.561 107.789 122.964 104.889 122.964H93.1858V114.232C93.1858 112.841 92.0585 111.714 90.668 111.714C89.2775 111.714 88.1503 112.841 88.1503 114.232V122.964H80.061C78.6705 122.964 77.5433 124.091 77.5433 125.482C77.5433 126.872 78.671 128 80.0613 128H104.889C108.049 128 111.956 127.65 114.148 124.92C116.391 122.126 115.846 118.01 115.121 114.736ZM44.827 12.785C50.1035 7.77651 58.0618 5.61676 67.844 6.54076C70.949 6.83251 73.2075 7.59901 75.3915 8.34051C80.3525 10.0243 84.707 11.5035 94.6445 6.67576C94.1918 8.40651 93.2555 10.744 91.8578 14.1705C91.274 15.6013 90.6123 17.223 89.8933 19.041C89.6028 19.775 89.6733 20.6023 90.0838 21.2763C90.494 21.9503 91.1965 22.393 91.9818 22.4725C96.897 22.9678 102.684 19.6835 106.922 17.2698C103.679 27.1365 98.988 32.6828 92.3473 34.5948C85.4778 36.5733 77.2308 34.5968 68.5005 32.5048C62.048 30.9588 55.48 29.385 49.1975 29.385C45.082 29.385 41.088 30.0608 37.3308 31.8615C37.6863 23.581 40.1998 17.1773 44.827 12.785ZM17.3203 117.888V93.553C17.3203 93.4983 17.3183 93.4435 17.315 93.3888C17.2728 92.7425 17.2798 92.2965 17.303 91.995C17.325 92.0015 17.3478 92.0088 17.371 92.016L21.4305 93.291C22.9363 93.7643 23.6993 94.31 23.6993 94.913V98.271C23.6993 100.342 23.7843 101.898 24.884 103.078C26.079 104.36 27.7198 104.36 29.3065 104.36H37.495V122.965H22.391C19.595 122.965 17.3203 120.687 17.3203 117.888ZM51.0433 73.762V73.7753V109.677C51.0433 111.094 49.8905 112.246 48.4735 112.246H42.5313V103.57C42.5313 101.229 40.626 99.324 38.2845 99.324H29.307C29.1643 99.324 28.96 99.324 28.7528 99.321C28.742 99.062 28.7355 98.7205 28.7355 98.271V94.913C28.7355 92.8123 27.7303 89.992 22.9403 88.487L22.571 88.371V64.6413C22.571 63.2285 23.7205 62.0795 25.1335 62.0795H38.8995C38.9008 62.0795 38.902 62.0798 38.9033 62.0798C38.9045 62.0798 38.9058 62.0795 38.907 62.0795H48.4735C49.8905 62.0795 51.0433 63.2285 51.0433 64.6413V73.762ZM70.0238 89.3585C65.3705 90.706 60.364 90.1973 56.0788 87.988V77.658C56.1785 77.6963 56.2798 77.7388 56.379 77.7755C59.3915 78.9003 62.071 79.462 64.7523 79.462C67.421 79.462 70.0915 78.905 73.0928 77.7915C74.418 77.3 75.722 76.709 76.9965 76.0345C77.3635 77.3963 77.9023 78.5738 78.949 79.6018C79.5148 80.1573 80.193 80.6258 81.0063 81.0478C78.3393 85.1428 74.5195 88.0568 70.0238 89.3585ZM71.3418 73.0705C66.4655 74.8795 63.0108 74.8763 58.135 73.056C57.4663 72.808 56.7778 72.5135 56.079 72.1853V64.6413C56.079 60.452 52.6673 57.0438 48.4735 57.0438H40.374C38.4108 53.378 37.3373 49.666 37.3373 46.4698V37.6368C45.6253 32.206 56.1783 34.7303 67.3268 37.4015C73.584 38.9005 79.9893 40.4355 86.054 40.4355C88.1393 40.4355 90.1835 40.25 92.1683 39.8233V46.47C92.1683 56.5253 82.4365 68.9553 71.3418 73.0705Z" fill="black"/>
<path d="M31.9845 70.8799C30.594 70.8799 29.4668 72.0071 29.4668 73.3976V77.4074C29.4668 78.7979 30.594 79.9251 31.9845 79.9251C33.375 79.9251 34.5023 78.7979 34.5023 77.4074V73.3979C34.5023 72.0074 33.375 70.8799 31.9845 70.8799Z" fill="black"/>
<path d="M75.1447 45.6729C73.7542 45.6729 72.627 46.8001 72.627 48.1906V48.2189C72.627 49.6094 73.7542 50.7366 75.1447 50.7366C76.5352 50.7366 77.6625 49.6094 77.6625 48.2189V48.1906C77.6627 46.8004 76.5352 45.6729 75.1447 45.6729Z" fill="black"/>
<path d="M53.4474 45.6729C52.0569 45.6729 50.9297 46.8001 50.9297 48.1906V48.2189C50.9297 49.6094 52.0569 50.7366 53.4474 50.7366C54.8379 50.7366 55.9652 49.6094 55.9652 48.2189V48.1906C55.9652 46.8004 54.8379 45.6729 53.4474 45.6729Z" fill="black"/>
<path d="M68.8381 122.964C67.4476 122.964 66.3203 124.091 66.3203 125.482C66.3203 126.872 67.4476 128 68.8381 128H68.8451C70.2356 128 71.3593 126.872 71.3593 125.482C71.3593 124.091 70.2286 122.964 68.8381 122.964Z" fill="black"/>
</g>
<defs>
<clipPath id="clip0">
<rect width="128" height="128" fill="white"/>
</clipPath>
</defs>
</svg>
