<svg width="128" height="128" viewBox="0 0 128 128" fill="none" xmlns="http://www.w3.org/2000/svg">
<g clip-path="url(#clip0)">
<path d="M68.7201 91.8153C72.5109 91.6348 76.2493 90.0968 79.1445 87.2019C85.3197 81.0267 85.3197 71.0145 79.1445 64.8392L63.1623 48.857C56.987 42.6818 46.9748 42.6818 40.7996 48.857C37.9044 51.7522 36.3667 55.4906 36.1862 59.2814C27.3195 58.0875 18.0169 60.8959 11.2021 67.7104C-0.395492 79.308 -0.395492 98.1111 11.2021 109.709L18.2926 116.799C29.8902 128.397 48.6933 128.397 60.2909 116.799C67.1056 109.985 69.914 100.682 68.7201 91.8153Z" fill="#EFC268"/>
<path d="M123.14 11.2341L116.768 4.86209C114.913 3.00691 111.905 3.00691 110.05 4.86209L97.8601 17.0519C96.005 18.9071 96.005 21.915 97.8601 23.7704L104.232 30.1425C106.087 31.9976 109.095 31.9976 110.951 30.1425L123.14 17.9526C124.996 16.0974 124.996 13.0893 123.14 11.2341Z" fill="#EFC268"/>
<path d="M44.123 73.6865L95.9371 21.8725L106.117 32.0524L54.303 83.8664L44.123 73.6865Z" fill="#AC6C58"/>
<path d="M43.008 97.9729C50.1554 97.9729 55.9495 92.1788 55.9495 85.0314C55.9495 77.884 50.1554 72.0898 43.008 72.0898C35.8605 72.0898 30.0664 77.884 30.0664 85.0314C30.0664 92.1788 35.8605 97.9729 43.008 97.9729Z" fill="#AC6C58"/>
<path d="M104.418 111.999C108.284 111.999 111.417 108.865 111.417 104.999C111.417 101.133 108.284 97.999 104.418 97.999C100.552 97.999 97.418 101.133 97.418 104.999C97.418 108.865 100.552 111.999 104.418 111.999Z" fill="#2EB9FA"/>
<path d="M16.0037 36.2505C19.8695 36.2505 23.0034 33.1166 23.0034 29.2507C23.0034 25.3849 19.8695 22.251 16.0037 22.251C12.1378 22.251 9.00391 25.3849 9.00391 29.2507C9.00391 33.1166 12.1378 36.2505 16.0037 36.2505Z" fill="#EFC268"/>
<path d="M79.7798 61.9392L107.692 34.0274C109.499 34.0027 111.298 33.3087 112.681 31.945L115.005 34.2689C115.493 34.7572 116.133 35.0012 116.773 35.0012C117.413 35.0012 118.052 34.7569 118.54 34.2689C119.517 33.2927 119.517 31.7098 118.54 30.7336L116.217 28.4104L121.409 23.2188L123.732 25.5417C124.22 26.03 124.86 26.274 125.5 26.274C126.14 26.274 126.779 26.03 127.267 25.5417C128.244 24.5655 128.244 22.9826 127.267 22.0061L124.943 19.6822C127.734 16.8523 127.723 12.2805 124.908 9.46556V9.46531L118.536 3.09353C117.167 1.72408 115.346 0.969857 113.409 0.969857C111.49 0.969857 109.685 1.71158 108.32 3.05803L105.996 0.734115C105.019 -0.242101 103.437 -0.242101 102.46 0.734115C101.484 1.71033 101.484 3.29327 102.46 4.26949L104.783 6.59266L99.5919 11.7847L97.2687 9.46156C96.2928 8.48534 94.7103 8.48534 93.7331 9.46156C92.7569 10.4378 92.7569 12.0207 93.7331 12.9969L96.0573 15.3211C94.7333 16.6633 93.9956 18.4307 93.9711 20.3142L66.0631 48.2222L64.9304 47.0895C57.7901 39.9495 46.1725 39.95 39.032 47.0895C36.4256 49.6959 34.6867 52.993 33.9992 56.5644C29.0524 56.2889 24.0955 57.1521 19.534 59.1013C18.2645 59.6438 17.6748 61.1127 18.2175 62.3824C18.6232 63.3317 19.5465 63.9006 20.5174 63.9006C20.8452 63.9006 21.1784 63.8359 21.4986 63.6989C26.0062 61.7725 30.9706 61.1017 35.8529 61.7592C36.5464 61.8535 37.2486 61.6505 37.7866 61.2022C38.3245 60.7538 38.65 60.1003 38.6833 59.4006C38.841 56.0884 40.2205 52.972 42.5674 50.6249C47.7577 45.4345 56.2039 45.434 61.3947 50.6249L62.5274 51.7576L44.6121 69.6729C44.0821 69.6184 43.5469 69.5894 43.0069 69.5894C38.8823 69.5894 35.0047 71.1956 32.088 74.1123C26.0675 80.1328 26.0675 89.9295 32.088 95.95C35.0987 98.9607 39.052 100.465 43.0069 100.465C46.9605 100.465 50.9159 98.9599 53.9257 95.95C56.8424 93.0334 58.4486 89.1557 58.4486 85.0311C58.4486 84.4694 58.4161 83.9127 58.3573 83.3617L76.2447 65.4746L77.3774 66.6073C82.5682 71.7979 82.5682 80.2438 77.3774 85.4346C75.0305 87.7815 71.9141 89.161 68.602 89.3187C67.9023 89.352 67.2488 89.6775 66.8003 90.2155C66.3518 90.7537 66.1498 91.4552 66.2433 92.1494C67.3868 100.642 64.5734 108.983 58.5238 115.032C53.387 120.169 46.5573 122.998 39.2923 122.998C32.0275 122.998 25.1978 120.169 20.0609 115.032L12.9704 107.942C5.06471 100.036 2.79604 88.286 7.19039 78.0071C7.73312 76.7374 7.14364 75.2685 5.87419 74.7258C4.60473 74.183 3.13553 74.7723 2.5928 76.0417C0.0941382 81.887 -0.616337 88.2925 0.538622 94.5666C1.72183 100.993 4.79797 106.84 9.43481 111.477L16.5253 118.568C22.6066 124.649 30.6921 127.998 39.2923 127.998C47.8922 127.998 55.9777 124.649 62.059 118.568C68.6207 112.006 71.9669 103.169 71.4399 94.0023C75.0107 93.3146 78.3066 91.5759 80.9125 88.97C88.0525 81.8298 88.0525 70.2119 80.9125 63.0717L79.7798 61.9392ZM113.409 5.97018C114.01 5.97018 114.576 6.20442 115.001 6.62941L121.373 13.0012C122.25 13.8789 122.25 15.3069 121.373 16.1843L109.183 28.3739C108.305 29.2516 106.878 29.2516 106 28.3746L99.6281 22.0021C99.2029 21.5769 98.9687 21.0119 98.9687 20.4107C98.9687 19.8097 99.2029 19.2445 99.6281 18.8192L111.818 6.62916C112.243 6.20417 112.808 5.97018 113.409 5.97018ZM50.3901 92.4146C48.4179 94.3868 45.7958 95.473 43.0069 95.473C40.218 95.473 37.5958 94.3868 35.6236 92.4146C33.6512 90.4425 32.5655 87.8203 32.5655 85.0311C32.5655 82.2422 33.6515 79.6201 35.6236 77.6477C37.5958 75.6755 40.218 74.5893 43.0069 74.5893C45.7958 74.5893 48.4179 75.6755 50.3901 77.6474C52.3625 79.6198 53.4485 82.242 53.4485 85.0311C53.4485 87.8205 52.3623 90.4427 50.3901 92.4146ZM53.9255 74.1125C52.774 72.9608 51.4708 72.0173 50.0636 71.2926L95.9555 25.4007L102.601 32.0468L56.7214 77.9264C55.9997 76.5374 55.064 75.251 53.9255 74.1125Z" fill="black"/>
<path d="M27.1629 110.094C27.6512 110.582 28.2909 110.826 28.9306 110.826C29.5706 110.826 30.2101 110.582 30.6983 110.094C31.6745 109.118 31.6745 107.535 30.6983 106.558L21.4299 97.2898C20.4534 96.3136 18.871 96.3136 17.8943 97.2898C16.9181 98.266 16.9181 99.8489 17.8943 100.825L27.1629 110.094Z" fill="black"/>
<path d="M121.895 80.1443H115.811C114.767 80.1443 113.917 79.2946 113.917 78.2499C113.917 76.8692 112.798 75.75 111.417 75.75C110.037 75.75 108.917 76.8692 108.917 78.2499V96.635C107.577 95.911 106.045 95.4993 104.418 95.4993C99.1796 95.4993 94.918 99.7609 94.918 104.999C94.918 110.237 99.1796 114.499 104.418 114.499C109.656 114.499 113.917 110.237 113.917 104.999V84.8797C114.519 85.0519 115.155 85.1442 115.811 85.1442H121.895C122.504 85.1442 123 85.6401 123 86.2496C123 87.6303 124.12 88.7495 125.5 88.7495C126.881 88.7495 128 87.6303 128 86.2496C128 82.8832 125.261 80.1443 121.895 80.1443ZM104.418 109.499C101.936 109.499 99.9178 107.48 99.9178 104.999C99.9178 102.518 101.936 100.499 104.418 100.499C106.899 100.499 108.917 102.518 108.917 104.999C108.917 107.48 106.899 109.499 104.418 109.499Z" fill="black"/>
<path d="M16.0036 38.7506C21.2416 38.7506 25.5032 34.489 25.5032 29.2509V9.13163C26.1052 9.30388 26.7407 9.39612 27.3974 9.39612H33.4807C34.0902 9.39612 34.5862 9.89211 34.5862 10.5016C34.5862 11.8823 35.7054 13.0015 37.0861 13.0015C38.4665 13.0015 39.586 11.8823 39.586 10.5016C39.586 7.1352 36.8471 4.3963 33.4807 4.3963H27.3974C26.353 4.3963 25.5032 3.54658 25.5032 2.50187C25.5032 1.12116 24.3838 0.00195312 23.0033 0.00195312C21.6229 0.00195312 20.5034 1.12116 20.5034 2.50187V20.887C19.1632 20.163 17.6305 19.7513 16.0036 19.7513C10.7655 19.7513 6.50391 24.0129 6.50391 29.2509C6.50391 34.489 10.7655 38.7506 16.0036 38.7506ZM16.0036 24.7511C18.4847 24.7511 20.5034 26.7698 20.5034 29.2509C20.5034 31.7321 18.4847 33.7508 16.0036 33.7508C13.5224 33.7508 11.5037 31.7321 11.5037 29.2509C11.5037 26.7698 13.5224 24.7511 16.0036 24.7511Z" fill="black"/>
<path d="M9.43312 65.9425C8.96812 66.4075 8.70312 67.0525 8.70312 67.71C8.70312 68.37 8.96812 69.0125 9.43312 69.4775C9.89812 69.945 10.5431 70.21 11.2006 70.21C11.8606 70.21 12.5031 69.945 12.9679 69.4775C13.4354 69.0125 13.7006 68.37 13.7006 67.71C13.7006 67.0525 13.4354 66.41 12.9679 65.9425C12.5054 65.4775 11.8604 65.21 11.2006 65.21C10.5431 65.21 9.89812 65.4775 9.43312 65.9425Z" fill="black"/>
</g>
<defs>
<clipPath id="clip0">
<rect width="128" height="128" fill="white"/>
</clipPath>
</defs>
</svg>
