<svg width="128" height="128" viewBox="0 0 128 128" fill="none" xmlns="http://www.w3.org/2000/svg">
<g clip-path="url(#clip0)">
<path d="M125.5 18.3925V109.607C125.5 114.265 121.725 118.04 117.067 118.04H10.9325C6.275 118.04 2.5 114.265 2.5 109.607V18.3925C2.5075 23.0375 6.275 26.8 10.92 26.8C12.2775 26.8 13.5625 26.4775 14.6975 25.905C16.4675 25.0175 17.88 23.5225 18.6625 21.6925C19.1 20.675 19.34 19.555 19.34 18.38C19.34 13.735 15.5775 9.96746 10.9325 9.95996H117.067C121.725 9.95996 125.5 13.735 125.5 18.3925Z" fill="#F9F5F3"/>
<path d="M113.302 21.6924V82.4949H14.6973V25.9049C16.4673 25.0174 17.8798 23.5224 18.6623 21.6924H113.302Z" fill="#EFC268"/>
<path d="M80.8278 94.4277H2.5V109.608C2.5 114.265 6.27525 118.04 10.9323 118.04H117.068C121.725 118.04 125.5 114.265 125.5 109.608V94.4277H102.827H80.8278Z" fill="#C1AFB4"/>
<path d="M10.9198 26.8004C15.5698 26.8004 19.3395 23.0308 19.3395 18.3807C19.3395 13.7306 15.5698 9.96094 10.9198 9.96094C6.26965 9.96094 2.5 13.7306 2.5 18.3807C2.5 23.0308 6.26965 26.8004 10.9198 26.8004Z" fill="#FF8A65"/>
<path d="M117.067 7.45996H10.9325C10.9237 7.45996 10.9152 7.46121 10.9067 7.46121C4.8915 7.46821 0 12.3637 0 18.3805C0 18.383 0.00025 18.3857 0.00025 18.3882C0.00025 18.3897 0 18.391 0 18.3925V94.4275V109.607V109.608C0 115.636 4.904 120.54 10.9323 120.54H117.068C123.096 120.54 128 115.636 128 109.608V109.607V94.4275V18.3925C128 12.3642 123.096 7.45996 117.067 7.45996ZM117.067 12.46C120.339 12.46 123 15.1212 123 18.3925V91.9275H102.827C101.446 91.9275 100.327 93.0467 100.327 94.4275C100.327 95.8082 101.446 96.9275 102.827 96.9275H123V109.607C123 112.879 120.339 115.54 117.067 115.54H10.9325C7.66125 115.54 5 112.879 5 109.607V96.9275H80.828C82.2085 96.9275 83.328 95.8082 83.328 94.4275C83.328 93.0467 82.2085 91.9275 80.828 91.9275H5V27.5507C7.119 28.9252 9.691 29.517 12.1975 29.2245V82.495C12.1975 83.8757 13.317 84.995 14.6975 84.995H113.302C114.683 84.995 115.802 83.8757 115.802 82.495V21.6925C115.802 20.3117 114.683 19.1925 113.302 19.1925H41.1325C39.752 19.1925 38.6325 20.3117 38.6325 21.6925C38.6325 23.0732 39.752 24.1925 41.1325 24.1925H110.802V79.995H17.1975V27.3152C20.0853 25.2897 21.84 21.9042 21.84 18.3797C21.84 16.2887 21.2275 14.2147 20.0907 12.4597H117.067V12.46ZM10.9198 12.461C14.1445 12.461 16.8395 15.156 16.8395 18.3807C16.8393 21.6027 14.1375 24.3 10.92 24.3C7.7785 24.3 5.19875 21.8355 5.01175 18.7382C5.01075 18.7222 5.009 18.7067 5.00825 18.6907C5.005 18.6305 5.00475 18.5697 5.00325 18.5092C5.00225 18.4662 5 18.4237 5 18.3805C5 15.1165 7.6555 12.461 10.9198 12.461Z" fill="black"/>
<path d="M45.0833 101.495C45.0833 100.114 43.9638 98.9951 42.5833 98.9951C41.2028 98.9951 40.0833 100.114 40.0833 101.495V103.734H14.6973C13.3168 103.734 12.1973 104.853 12.1973 106.234C12.1973 107.614 13.3168 108.734 14.6973 108.734H40.0833V110.972C40.0833 112.353 41.2028 113.472 42.5833 113.472C43.9638 113.472 45.0833 112.353 45.0833 110.972V108.734H113.303C114.683 108.734 115.803 107.614 115.803 106.234C115.803 104.853 114.683 103.734 113.303 103.734H45.0833V101.495Z" fill="black"/>
<path d="M39.9734 60.578C41.1354 61.0202 42.4346 60.4373 42.8766 59.276L43.7251 57.048H49.6541L50.4926 59.2697C50.9251 60.4162 52.2446 61.0138 53.3921 60.5805C54.5546 60.1418 55.1416 58.8435 54.7026 57.681L49.1306 42.9157C49.1229 42.895 49.1149 42.8745 49.1064 42.854C48.7054 41.8795 47.7656 41.25 46.7116 41.25C46.7109 41.25 46.7101 41.25 46.7094 41.25C45.6544 41.2508 44.7146 41.8823 44.3151 42.8585C44.3081 42.8755 44.3011 42.8928 44.2949 42.9103L38.6714 57.675C38.2291 58.8357 38.8119 60.1357 39.9734 60.578ZM47.9559 52.548H45.4391L46.7034 49.229L47.9559 52.548Z" fill="black"/>
<path d="M58.7294 59.8509C59.1507 60.2692 59.7304 60.5042 60.3232 60.5042C60.4477 60.5037 63.3852 60.4924 64.5609 60.4719C69.1724 60.3914 72.5197 56.4027 72.5197 50.9879C72.5197 45.2959 69.2569 41.4717 64.4009 41.4717H60.2852C59.6877 41.4717 59.1147 41.7094 58.6927 42.1322C58.2707 42.5549 58.0339 43.1284 58.0352 43.7259V43.7364V43.7369V58.0182C58.0354 58.6907 58.2449 59.3704 58.7294 59.8509ZM64.4009 45.9717C67.7587 45.9717 68.0197 49.8112 68.0197 50.9879C68.0197 53.4382 66.9259 55.9299 64.4824 55.9724C64.0307 55.9802 63.2902 55.9869 62.5572 55.9919C62.5519 54.3119 62.5459 52.1179 62.5459 50.9717C62.5459 50.0094 62.5424 47.7224 62.5394 45.9714H64.4009V45.9717Z" fill="black"/>
<path d="M82.7207 60.7246C86.06 60.7246 88.867 58.5796 89.3945 55.6244C89.7942 53.3856 88.797 50.4681 84.7995 48.9939C83.0262 48.3396 81.3707 47.6289 80.7952 47.3776C80.581 47.1804 80.578 46.9251 80.5988 46.7801C80.6265 46.5876 80.772 46.1154 81.5247 45.8889C83.4295 45.3154 85.2327 46.7209 85.298 46.7726C86.2492 47.5591 87.658 47.4329 88.4542 46.4864C89.2537 45.5351 89.1307 44.1159 88.1795 43.3161C88.0317 43.1919 84.5098 40.2896 80.2268 41.5799C78.0168 42.2456 76.4525 43.9931 76.1445 46.1409C75.8538 48.1649 76.7318 50.1124 78.4355 51.2231C78.5348 51.2879 78.639 51.3446 78.7475 51.3931C78.8347 51.4319 80.908 52.3549 83.2422 53.2159C84.1542 53.5524 85.0857 54.1539 84.9645 54.8336C84.8645 55.3946 84.082 56.2246 82.7205 56.2246C81.337 56.2246 80.0095 55.6711 79.1692 54.7439C78.335 53.8231 76.9122 53.7531 75.9912 54.5876C75.0703 55.4221 75.0003 56.8449 75.8348 57.7656C77.539 59.6461 80.0487 60.7246 82.7207 60.7246Z" fill="black"/>
<path d="M89.5204 95.3821C90.0369 96.6419 91.5302 97.2579 92.7854 96.7346C94.0427 96.2106 94.6584 94.7324 94.1379 93.4721C93.6177 92.2126 92.1304 91.6004 90.8729 92.1196C89.6162 92.6386 88.9969 94.1251 89.5204 95.3821Z" fill="black"/>
<path d="M27.9051 22.648C28.3081 23.631 29.3371 24.2672 30.3971 24.185C31.4606 24.1025 32.3766 23.3352 32.6379 22.3C33.1834 20.1382 30.7191 18.407 28.8601 19.5927C27.8569 20.2327 27.4479 21.5505 27.9051 22.648Z" fill="black"/>
</g>
<defs>
<clipPath id="clip0">
<rect width="128" height="128" fill="white"/>
</clipPath>
</defs>
</svg>
