<svg width="128" height="128" viewBox="0 0 128 128" fill="none" xmlns="http://www.w3.org/2000/svg">
<g clip-path="url(#clip0)">
<path d="M63.9673 2.50195H12.5036C6.98115 2.50195 2.50391 6.97919 2.50391 12.5017V31.5286C2.50391 37.0511 6.98115 41.5284 12.5036 41.5284H45.0103L44.9993 53.7754L57.2463 41.5284H63.9673C69.4898 41.5284 73.967 37.0511 73.967 31.5286V12.5017C73.967 6.97869 69.4898 2.50195 63.9673 2.50195Z" fill="#2EB9FA"/>
<path d="M115.501 2.50195H64.037C64.0252 2.50195 64.0137 2.5027 64.002 2.5027C69.5082 2.5217 73.9667 6.99069 73.9667 12.5017V31.5286C73.9667 36.8139 69.8654 41.1386 64.6725 41.5009H112.008L112.001 54.6856L123.489 37.5159C124.751 35.8419 125.501 33.7591 125.501 31.5014V12.5017C125.5 6.97869 121.023 2.50195 115.501 2.50195Z" fill="#EFC268"/>
<path d="M110.734 71.0156V87.0998C110.542 89.6071 109.319 91.8393 107.468 93.0616L97.8418 98.5646C95.9088 99.8411 93.5586 99.8411 91.6259 98.5646L82.0286 93.0616C80.1774 91.8391 78.9261 89.6068 78.7344 87.0998V71.0156H110.734Z" fill="#FFEFD5"/>
<path d="M113.667 68.8314C113.667 72.1489 112.452 73.8446 108.755 73.8446H86.1444C80.4287 73.8446 75.7949 69.2109 75.7949 63.4952V54.2604C75.7949 53.3877 76.7867 52.8979 77.4892 53.4159C78.5627 54.2072 80.0809 55.0007 81.8532 55.0007H105.972C110.15 55.0007 113.548 58.3289 113.665 62.4779L113.671 62.4524L113.667 68.8314Z" fill="#898998"/>
<path d="M101.23 98.3184V100.983C101.23 103.311 102.874 105.315 105.157 105.77L115.855 107.901C120.554 108.837 124.103 112.713 124.624 117.476L125.5 125.498H63.9668L64.841 117.479C65.3605 112.714 68.9103 108.837 73.6103 107.901L84.306 105.77C86.589 105.315 88.233 103.311 88.233 100.983V98.3184H101.23Z" fill="#BD9EFF"/>
<path d="M84.8455 106.127C90.3055 111.587 99.1585 111.587 104.618 106.127L105.024 105.738C102.811 105.233 101.228 103.266 101.228 100.983V98.3184H88.2313V100.983C88.2313 103.311 86.5873 105.315 84.3043 105.77L83.9883 105.833L84.8455 106.127Z" fill="#FFEFD5"/>
<path d="M8.26758 109.27V76.0705C8.26758 62.2638 19.4601 51.0713 33.2668 51.0713C47.0735 51.0713 58.266 62.2638 58.266 76.0705V109.27" fill="#EFC268"/>
<path d="M39.7632 98.3184V100.983C39.7632 103.311 41.4072 105.315 43.6902 105.77L54.3879 107.901C59.0874 108.837 62.6364 112.713 63.1569 117.476L64.0334 125.498H2.5L3.37425 117.479C3.89375 112.714 7.44349 108.837 12.1435 107.901L22.8392 105.77C25.1222 105.315 26.7662 103.311 26.7662 100.983V98.3184H39.7632Z" fill="#FF8A65"/>
<path d="M23.3807 106.126C28.8407 111.586 37.6937 111.586 43.1536 106.126L43.5594 105.737C41.3457 105.232 39.7634 103.265 39.7634 100.982V98.3174H26.7664V100.982C26.7664 103.31 25.1224 105.314 22.8394 105.769L22.5234 105.832L23.3807 106.126Z" fill="#FFEFD5"/>
<path d="M17.2676 76.1246V87.0998C17.4593 89.607 18.6818 91.8393 20.5331 93.0615L30.1593 98.5645C32.0923 99.841 34.4425 99.841 36.3753 98.5645L45.9725 93.0615C47.8238 91.839 49.075 89.6068 49.2668 87.0998V76.1246L38.086 69.8828C34.1965 73.8738 28.8601 76.1246 23.2876 76.1246H17.2676Z" fill="#FFEFD5"/>
<path d="M125.53 38.9616C127.146 36.7916 128 34.2136 128 31.5011V12.5017C128 5.60944 122.393 0.00195312 115.501 0.00195312H12.5033C5.61107 0.00195312 0.00357979 5.60919 0.00357979 12.5017V31.5286C0.00357979 38.4209 5.61082 44.0284 12.5033 44.0284H42.5078L42.502 50.1689C39.614 49.1361 36.5055 48.5716 33.2668 48.5716C18.1038 48.5716 5.76757 60.9078 5.76757 76.0708V108.214C3.08707 110.395 1.28783 113.58 0.891578 117.205L0.0148298 125.227C-0.0624201 125.933 0.164579 126.638 0.638579 127.167C1.11258 127.696 1.78958 127.998 2.49983 127.998H125.5C126.21 127.998 126.887 127.696 127.361 127.167C127.835 126.639 128.062 125.933 127.985 125.227L127.109 117.205C126.467 111.329 122.14 106.605 116.343 105.45L105.645 103.318C104.535 103.097 103.73 102.115 103.73 100.983V98.3185C103.73 98.2398 103.725 98.162 103.718 98.085L108.708 95.232C108.755 95.2055 108.8 95.1773 108.845 95.1478C111.338 93.5018 112.975 90.5643 113.225 87.2903C113.23 87.227 113.233 87.1633 113.233 87.0998V75.2561C114.92 74.2176 116.166 72.2838 116.167 68.8331L116.171 62.4536C116.171 62.3566 116.166 62.2608 116.155 62.1668C116.041 59.9296 115.223 57.8983 113.921 56.2813C113.976 56.2153 114.03 56.1481 114.078 56.0756L125.53 38.9616ZM12.5033 39.0286C8.52656 39.0286 5.26482 35.9171 5.01982 32.0014H26.4808C27.8613 32.0014 28.9808 30.8819 28.9808 29.5014C28.9808 28.1209 27.8613 27.0014 26.4808 27.0014H5.00357V12.5019C5.00357 8.36644 8.36806 5.00219 12.5033 5.00219H63.9667C68.1022 5.00219 71.4664 8.36669 71.4664 12.5019V31.5289C71.4664 35.6644 68.102 39.0286 63.9667 39.0286H57.2457C56.5827 39.0286 55.947 39.2921 55.478 39.7609L47.5042 47.7346L47.5097 41.5309C47.5102 40.8676 47.2472 40.2311 46.7782 39.7619C46.3092 39.2924 45.673 39.0286 45.0097 39.0286H12.5033ZM58.2815 44.0286H63.9667C70.8589 44.0286 76.4664 38.4214 76.4664 31.5289V12.5019C76.4664 9.69018 75.5327 7.09319 73.9599 5.00244L115.501 5.00219C119.636 5.00219 123 8.36669 123 12.5019V31.5014C123 33.1436 122.479 34.7034 121.493 36.0109C121.465 36.0484 121.437 36.0869 121.411 36.1261L114.505 46.4474L114.508 41.5026C114.509 40.8394 114.245 40.2031 113.776 39.7339C113.307 39.2649 112.671 39.0011 112.008 39.0011H92.7514C91.3709 39.0011 90.2514 40.1206 90.2514 41.5011C90.2514 42.8816 91.3709 44.0011 92.7514 44.0011H109.507L109.502 53.1206C108.403 52.7206 107.215 52.5009 105.972 52.5009H81.8534C80.7027 52.5009 79.6517 51.9041 78.9732 51.4039C77.8819 50.5994 76.4537 50.4784 75.2452 51.0884C74.0424 51.6961 73.2952 52.9114 73.2952 54.2603V63.4948C73.2952 66.5951 74.3987 69.4421 76.2337 71.6641V87.0998C76.2337 87.1633 76.2362 87.227 76.2409 87.2903C76.4902 90.5523 78.1387 93.4893 80.6504 95.1478C80.6942 95.1768 80.7389 95.2043 80.7842 95.2303L85.7454 98.075C85.7377 98.1553 85.7332 98.2363 85.7332 98.3183V100.983C85.7332 102.115 84.9274 103.097 83.8177 103.318L73.1219 105.449C69.1564 106.239 65.8807 108.699 64.0002 112.054C63.1725 110.578 62.0742 109.275 60.766 108.212V76.0711C60.766 66.6978 56.051 58.4066 48.8695 53.4401L58.2815 44.0286ZM78.2954 63.4951V56.7471C79.4632 57.2438 80.6652 57.5008 81.8537 57.5008H105.973C108.805 57.5008 111.087 59.7183 111.167 62.5488C111.168 62.5808 111.169 62.6123 111.171 62.6438L111.167 68.8301C111.167 68.8306 111.167 68.8313 111.167 68.8318C111.167 70.2846 110.877 70.7596 110.752 70.8966C110.491 71.1816 109.764 71.3448 108.755 71.3448H86.1452C81.8169 71.3448 78.2954 67.8233 78.2954 63.4951ZM90.7332 100.984V100.945C91.9897 101.661 93.3609 102.022 94.7336 102.022C96.1044 102.022 97.4749 101.661 98.7301 100.948V100.984C98.7301 102.91 99.4844 104.696 100.733 106.028C97.0646 108.277 92.3997 108.276 88.7319 106.027C89.9794 104.694 90.7332 102.91 90.7332 100.984ZM10.7676 76.0711C10.7676 63.6648 20.8608 53.5716 33.267 53.5716C45.6732 53.5716 55.7665 63.6648 55.7665 76.0711V105.66C55.4742 105.581 55.179 105.509 54.8785 105.449L44.1827 103.318C43.073 103.097 42.2675 102.115 42.2675 100.984V98.3188C42.2675 98.2365 42.263 98.1555 42.2552 98.0753L47.216 95.2308C47.2615 95.2048 47.306 95.1773 47.3497 95.1483C49.8615 93.4898 51.51 90.5525 51.7592 87.2908C51.7642 87.2275 51.7665 87.1638 51.7665 87.1003V76.1251C51.7665 75.2191 51.2762 74.3838 50.485 73.9423L39.3043 67.7006C38.3175 67.1493 37.084 67.3293 36.2955 68.1386C32.897 71.6256 28.1558 73.6251 23.287 73.6251H17.2675C15.8871 73.6251 14.7676 74.7446 14.7676 76.1251V87.1003C14.7676 87.1638 14.7701 87.2275 14.7748 87.2908C15.0251 90.5653 16.6628 93.5023 19.1555 95.1483C19.2003 95.1778 19.2458 95.2058 19.2923 95.2325L24.2823 98.0853C24.275 98.1623 24.2705 98.24 24.2705 98.319V100.984C24.2705 102.116 23.4648 103.098 22.355 103.319L11.6573 105.45C11.3563 105.51 11.0603 105.582 10.7673 105.661V76.0711H10.7676ZM35.1318 96.3965C35.0863 96.4225 35.0418 96.4503 34.9978 96.479C33.8978 97.2055 32.6365 97.2055 31.5368 96.479C31.492 96.4495 31.4465 96.4215 31.3998 96.3948L21.8525 90.937C20.709 90.15 19.917 88.6535 19.7673 86.997V78.6251H23.2873C28.848 78.6251 34.2785 76.5796 38.4648 72.9581L46.7665 77.5928V86.997C46.617 88.6428 45.814 90.1398 44.6517 90.9378L35.1318 96.3965ZM29.2705 100.984V100.947C30.5258 101.662 31.8958 102.022 33.2673 102.022C34.6395 102.022 36.0115 101.661 37.2678 100.945V100.983C37.2678 102.909 38.0213 104.694 39.269 106.026C35.6013 108.276 30.936 108.276 27.2678 106.028C28.5163 104.696 29.2705 102.91 29.2705 100.984ZM5.28832 122.999L5.86207 117.748C6.26607 114.052 8.98781 111.08 12.6346 110.354L22.195 108.449C25.3268 111.292 29.2965 112.715 33.2673 112.715C37.2383 112.715 41.2083 111.292 44.34 108.448L53.9017 110.353C57.5497 111.08 60.2712 114.053 60.6745 117.75L61.2467 122.999H5.28832ZM122.139 117.748L122.712 122.999H66.7542L67.3267 117.75C67.7294 114.052 70.4514 111.08 74.0992 110.353L83.6609 108.448C86.7932 111.292 90.7624 112.715 94.7336 112.715C98.7036 112.715 102.674 111.292 105.806 108.449L115.366 110.353C119.013 111.08 121.735 114.052 122.139 117.748ZM106.148 90.937L96.6011 96.3948C96.5544 96.4213 96.5089 96.4495 96.4641 96.479C95.3641 97.2055 94.1029 97.2055 93.0032 96.479C92.9594 96.4503 92.9146 96.4225 92.8691 96.3965L83.3484 90.9375C82.1864 90.1395 81.3834 88.6425 81.2339 86.9968V75.3668C82.7479 75.9956 84.4064 76.3443 86.1452 76.3443H108.233V86.9968C108.083 88.6535 107.292 90.1498 106.148 90.937Z" fill="black"/>
<path d="M81.5019 44.001C82.1594 44.001 82.8044 43.7335 83.2692 43.2682C83.7342 42.8035 84.0019 42.1585 84.0019 41.501C84.0019 40.8435 83.7344 40.1985 83.2692 39.7335C82.8044 39.2685 82.1594 39.001 81.5019 39.001C80.8445 39.001 80.1994 39.2682 79.7345 39.7335C79.2695 40.1987 79.002 40.8435 79.002 41.501C79.002 42.1585 79.2692 42.8035 79.7345 43.2682C80.1994 43.7332 80.8445 44.001 81.5019 44.001Z" fill="black"/>
<path d="M35.8574 27.001C35.1972 27.001 34.5549 27.2682 34.0899 27.7335C33.6224 28.1985 33.3574 28.8435 33.3574 29.501C33.3574 30.1585 33.6224 30.8035 34.0899 31.2682C34.5549 31.7332 35.1974 32.001 35.8574 32.001C36.5149 32.001 37.1599 31.7335 37.6249 31.2682C38.0897 30.8035 38.3574 30.1585 38.3574 29.501C38.3574 28.8435 38.0899 28.1985 37.6249 27.7335C37.1599 27.2682 36.5149 27.001 35.8574 27.001Z" fill="black"/>
</g>
<defs>
<clipPath id="clip0">
<rect width="128" height="128" fill="white"/>
</clipPath>
</defs>
</svg>
