<svg width="128" height="128" viewBox="0 0 128 128" fill="none" xmlns="http://www.w3.org/2000/svg">
<path d="M17.2031 31.5068H111.274V89.752H17.2031V31.5068Z" fill="white"/>
<path d="M26.4473 40.2432H102.534V81.0156H26.4473V40.2432Z" fill="#EFC268"/>
<path d="M10.6855 112.315H2.77344L17.2031 89.752H111.275L125.227 112.315H31.374" fill="#C1AFB4"/>
<path d="M27.6279 89.752L20.5664 103.835H107.889L100.746 89.752H27.6279Z" fill="#F9F9F9"/>
<path d="M66.7578 15.5127H125.479V53.875H66.7578V15.5127Z" fill="#FF8A65"/>
<path d="M88.7539 45.6553L103.479 34.7227L88.7539 23.791V45.6553Z" fill="#F0F5F9"/>
<path d="M2.50391 48.1611V70.0586H21.6631L26.3291 75.2939L31.2422 70.0586H38.0859V48.1611H2.50391Z" fill="#2EB9FA"/>
<path d="M32.3877 99.0547H36.6553C38.043 99.0547 39.1689 97.9297 39.1689 96.542C39.1689 95.1543 38.043 94.0293 36.6553 94.0293H32.3877C31 94.0293 29.875 95.1543 29.875 96.542C29.875 97.9297 31 99.0547 32.3877 99.0547Z" fill="black"/>
<path d="M44.2822 99.0547H48.5498C49.9375 99.0547 51.0625 97.9297 51.0625 96.542C51.0625 95.1543 49.9375 94.0293 48.5498 94.0293H44.2822C42.8945 94.0293 41.7695 95.1543 41.7695 96.542C41.7695 97.9297 42.8945 99.0547 44.2822 99.0547Z" fill="black"/>
<path d="M56.1768 99.0547H60.4443C61.832 99.0547 62.957 97.9297 62.957 96.542C62.957 95.1543 61.832 94.0293 60.4443 94.0293H56.1768C54.7891 94.0293 53.6641 95.1543 53.6641 96.542C53.6641 97.9297 54.7891 99.0547 56.1768 99.0547Z" fill="black"/>
<path d="M68.0703 99.0547H72.3379C73.7256 99.0547 74.8506 97.9297 74.8506 96.542C74.8506 95.1543 73.7256 94.0293 72.3379 94.0293H68.0703C66.6816 94.0293 65.5566 95.1543 65.5566 96.542C65.5566 97.9297 66.6816 99.0547 68.0703 99.0547Z" fill="black"/>
<path d="M79.9639 99.0547H84.2324C85.6201 99.0547 86.7451 97.9297 86.7451 96.542C86.7451 95.1543 85.6201 94.0293 84.2324 94.0293H79.9639C78.5762 94.0293 77.4512 95.1543 77.4512 96.542C77.4512 97.9297 78.5762 99.0547 79.9639 99.0547Z" fill="black"/>
<path d="M91.8584 99.0547H96.126C97.5137 99.0547 98.6387 97.9297 98.6387 96.542C98.6387 95.1543 97.5137 94.0293 96.126 94.0293H91.8584C90.4707 94.0293 89.3457 95.1543 89.3457 96.542C89.3457 97.9297 90.4707 99.0547 91.8584 99.0547Z" fill="black"/>
<path d="M125.487 56.3877C126.875 56.3877 128 55.2627 128 53.875V15.5127C128 14.125 126.875 13 125.487 13H66.7656C65.377 13 64.252 14.125 64.252 15.5127V28.9941H17.2109C15.8232 28.9941 14.6982 30.1191 14.6982 31.5068V45.6484H2.5127C1.125 45.6484 0 46.7734 0 48.1611V70.0576C0 71.4453 1.125 72.5703 2.5127 72.5703H14.6992V89.0166L0.665039 110.961C-0.385742 112.604 0.836914 114.828 2.78223 114.828H10.6934C12.0811 114.828 13.2061 113.702 13.2061 112.315C13.2061 110.928 12.0811 109.802 10.6934 109.802H7.37207L18.5869 92.2646H23.5645L18.3271 102.709C17.5029 104.353 18.7402 106.348 20.5732 106.348H107.896C109.734 106.348 110.972 104.343 110.137 102.698L104.846 92.2646H109.883L120.727 109.802H31.3818C29.9941 109.802 28.8691 110.928 28.8691 112.315C28.8691 113.702 29.9941 114.828 31.3818 114.828H125.234C127.163 114.828 128.39 112.639 127.372 110.993L113.796 89.0371V56.3877H125.487ZM69.2783 18.0254H122.975V51.3613H69.2783V18.0254ZM66.7656 56.3877H100.029V78.5029H28.9678V76.1641L32.3398 72.5713H38.0947C39.4824 72.5713 40.6074 71.4453 40.6074 70.0586V48.1611C40.6074 46.7734 39.4824 45.6484 38.0947 45.6484H28.9678V42.7559H64.2529V53.874C64.252 55.2627 65.377 56.3877 66.7656 56.3877ZM19.7236 34.0195H64.252V37.7305H26.4551C25.0674 37.7305 23.9424 38.8564 23.9424 40.2432V45.6484H19.7236V34.0195ZM5.02539 67.5449V50.6748H35.582V67.5449H31.252C30.5576 67.5449 29.8945 67.832 29.4189 68.3389L26.3867 71.5703L23.5488 68.3857C23.0723 67.8516 22.3896 67.5449 21.6729 67.5449H5.02539ZM103.804 101.322H24.6445L29.1865 92.2646H99.2109L103.804 101.322ZM100.753 87.2393H19.7246V72.5713H20.5459L23.9424 76.3828V81.0156C23.9424 82.4033 25.0674 83.5283 26.4561 83.5283H102.543C103.931 83.5283 105.056 82.4033 105.056 81.0156V56.3877H108.771V87.2393H100.753Z" fill="black"/>
<path d="M104.985 32.7046L90.2607 21.773C88.6318 20.564 86.25 21.7691 86.25 23.7906V45.6548C86.25 46.5054 86.6953 47.3169 87.4121 47.774C88.2812 48.3267 89.4326 48.2857 90.2598 47.6724L104.985 36.7398C105.624 36.2662 106.001 35.5181 106.001 34.7222C106.001 33.9273 105.624 33.1792 104.985 32.7046ZM91.2754 40.6597V28.7857L99.2725 34.7222L91.2754 40.6597Z" fill="black"/>
<path d="M66.7656 65.7891H90.3682C91.7559 65.7891 92.8809 64.6631 92.8809 63.2764C92.8809 61.8887 91.7559 60.7627 90.3682 60.7627H66.7656C65.377 60.7627 64.252 61.8887 64.252 63.2764C64.252 64.6631 65.377 65.7891 66.7656 65.7891Z" fill="black"/>
<path d="M90.3691 69.3008H66.7666C65.3789 69.3008 64.2539 70.4258 64.2539 71.8135C64.2539 73.2012 65.3789 74.3262 66.7666 74.3262H90.3691C91.7578 74.3262 92.8828 73.2012 92.8828 71.8135C92.8828 70.4258 91.7578 69.3008 90.3691 69.3008Z" fill="black"/>
<path d="M20.9349 109.803C19.8851 109.803 18.9281 110.478 18.5716 111.463C18.2162 112.447 18.5257 113.586 19.3343 114.252C20.1439 114.919 21.3089 115.01 22.2122 114.478C23.1126 113.948 23.6019 112.87 23.4027 111.844C23.1751 110.674 22.1283 109.803 20.9349 109.803Z" fill="black"/>
</svg>
