<svg width="128" height="128" viewBox="0 0 128 128" fill="none" xmlns="http://www.w3.org/2000/svg">
<g clip-path="url(#clip0)">
<path d="M120.5 125.5C123.262 125.5 125.5 123.262 125.5 120.5V21C125.5 18.2383 123.262 16 120.5 16H7.5C4.73828 16 2.5 18.2383 2.5 21V120.5C2.5 123.262 4.73828 125.5 7.5 125.5H120.5Z" fill="white"/>
<path d="M125.5 21C125.5 18.2383 123.262 16 120.5 16H7.5C4.73828 16 2.5 18.2383 2.5 21V44H125.5V21Z" fill="#2EB9FA"/>
<path d="M30.5 11.75V8.5C30.5 5.18652 27.8135 2.5 24.5 2.5C21.1865 2.5 18.5 5.18652 18.5 8.5V24.542C18.5 27.8555 21.1865 30.542 24.5 30.542C27.8135 30.542 30.5 27.8555 30.5 24.542V11.75Z" fill="white"/>
<path d="M69.9688 11.75V8.5C69.9688 5.18652 67.2832 2.5 63.9688 2.5C60.6553 2.5 57.9688 5.18652 57.9688 8.5V24.542C57.9688 27.8555 60.6553 30.542 63.9688 30.542C67.2832 30.542 69.9688 27.8555 69.9688 24.542V11.75Z" fill="white"/>
<path d="M109.438 11.75V8.5C109.438 5.18652 106.751 2.5 103.438 2.5C100.124 2.5 97.4375 5.18652 97.4375 8.5V24.542C97.4375 27.8555 100.124 30.542 103.438 30.542C106.751 30.542 109.438 27.8555 109.438 24.542V11.75Z" fill="white"/>
<path d="M27.0771 77.2305C20.959 77.2305 16 72.2715 16 66.1533C16 60.0361 20.959 55.0771 27.0771 55.0771C33.1943 55.0771 38.1543 60.0361 38.1543 66.1533C38.1533 72.2715 33.1943 77.2305 27.0771 77.2305Z" fill="#EFC268"/>
<path d="M100.923 77.2305C94.8057 77.2305 89.8457 72.2715 89.8457 66.1533C89.8457 60.0361 94.8057 55.0771 100.923 55.0771C107.04 55.0771 112 60.0361 112 66.1533C112 72.2715 107.041 77.2305 100.923 77.2305Z" fill="#EFC268"/>
<path d="M63.999 77.2305C57.8809 77.2305 52.9219 72.2715 52.9219 66.1533C52.9219 60.0361 57.8809 55.0771 63.999 55.0771C70.1162 55.0771 75.0762 60.0361 75.0762 66.1533C75.0762 72.2715 70.1172 77.2305 63.999 77.2305Z" fill="white"/>
<path d="M63.999 77.2305C57.8809 77.2305 52.9219 72.2715 52.9219 66.1533C52.9219 60.0361 57.8809 55.0771 63.999 55.0771C70.1162 55.0771 75.0762 60.0361 75.0762 66.1533C75.0762 72.2715 70.1172 77.2305 63.999 77.2305Z" fill="#EFC268"/>
<path d="M27.0771 112C20.959 112 16 107.041 16 100.923C16 94.8057 20.959 89.8457 27.0771 89.8457C33.1943 89.8457 38.1543 94.8057 38.1543 100.923C38.1533 107.041 33.1943 112 27.0771 112Z" fill="#EFC268"/>
<path d="M100.923 112C94.8057 112 89.8457 107.041 89.8457 100.923C89.8457 94.8057 94.8057 89.8457 100.923 89.8457C107.04 89.8457 112 94.8057 112 100.923C112 107.041 107.041 112 100.923 112Z" fill="#EFC268"/>
<path d="M63.999 112C57.8809 112 52.9219 107.041 52.9219 100.923C52.9219 94.8057 57.8809 89.8457 63.999 89.8457C70.1162 89.8457 75.0762 94.8057 75.0762 100.923C75.0762 107.041 70.1172 112 63.999 112Z" fill="white"/>
<path d="M63.999 112C57.8809 112 52.9219 107.041 52.9219 100.923C52.9219 94.8057 57.8809 89.8457 63.999 89.8457C70.1162 89.8457 75.0762 94.8057 75.0762 100.923C75.0762 107.041 70.1172 112 63.999 112Z" fill="#EFC268"/>
<path d="M117.268 45.7676C117.732 45.3027 118 44.6572 118 44C118 43.3428 117.732 42.6973 117.268 42.2324C116.803 41.7676 116.157 41.5 115.5 41.5C114.843 41.5 114.197 41.7676 113.732 42.2324C113.268 42.6973 113 43.3398 113 44C113 44.6572 113.268 45.3027 113.732 45.7676C114.197 46.2324 114.843 46.5 115.5 46.5C116.157 46.5 116.803 46.2324 117.268 45.7676Z" fill="black"/>
<path d="M120.5 13.5H111.937V8.5C111.937 3.81348 108.123 0 103.437 0C98.749 0 94.9365 3.81348 94.9365 8.5V13.5H72.4678V8.5C72.4678 3.81348 68.6553 0 63.9678 0C59.2812 0 55.4678 3.81348 55.4678 8.5V13.5H33V8.5C33 3.81348 29.1865 0 24.5 0C19.8135 0 16 3.81348 16 8.5V13.5H7.5C3.36426 13.5 0 16.8643 0 21V120.5C0 124.636 3.36426 128 7.5 128H37.083C38.4639 128 39.583 126.881 39.583 125.5C39.583 124.119 38.4639 123 37.083 123H7.5C6.12109 123 5 121.879 5 120.5V46.5H105.5C106.881 46.5 108 45.3809 108 44C108 42.6191 106.881 41.5 105.5 41.5H5V21C5 19.6211 6.12109 18.5 7.5 18.5H16V24.542C16 29.2285 19.8135 33.042 24.5 33.042C29.1865 33.042 33 29.2285 33 24.542V18.5H55.4678V24.542C55.4678 29.2285 59.2812 33.042 63.9678 33.042C68.6553 33.042 72.4678 29.2285 72.4678 24.542V18.5H94.9365V24.542C94.9365 29.2285 98.749 33.042 103.437 33.042C108.123 33.042 111.937 29.2285 111.937 24.542V18.5H120.5C121.879 18.5 123 19.6211 123 21V120.5C123 121.879 121.879 123 120.5 123H57.083C55.7031 123 54.583 124.119 54.583 125.5C54.583 126.881 55.7031 128 57.083 128H120.5C124.636 128 128 124.636 128 120.5V21C128 16.8643 124.636 13.5 120.5 13.5ZM28 24.542C28 26.4717 26.4297 28.042 24.5 28.042C22.5703 28.042 21 26.4717 21 24.542V8.5C21 6.57031 22.5703 5 24.5 5C26.4297 5 28 6.57031 28 8.5V24.542ZM67.4678 24.542C67.4678 26.4717 65.8984 28.042 63.9678 28.042C62.0381 28.042 60.4678 26.4717 60.4678 24.542V8.5C60.4678 6.57031 62.0381 5 63.9678 5C65.8984 5 67.4678 6.57031 67.4678 8.5V24.542ZM106.937 24.542C106.937 26.4717 105.366 28.042 103.437 28.042C101.507 28.042 99.9365 26.4717 99.9365 24.542V8.5C99.9365 6.57031 101.507 5 103.437 5C105.366 5 106.937 6.57031 106.937 8.5V24.542Z" fill="black"/>
<path d="M23.3369 53.1C17.5449 54.7563 13.5 60.1244 13.5 66.1537C13.5 73.6401 19.5908 79.7309 27.0771 79.7309C33.6523 79.7309 39.2715 75.0414 40.4375 68.5795C40.6826 67.2211 39.7803 65.9203 38.4219 65.6752C37.0645 65.4301 35.7627 66.3324 35.5176 67.6908C34.7803 71.77 31.2314 74.7309 27.0771 74.7309C22.3477 74.7309 18.5 70.8832 18.5 66.1537C18.5 62.3442 21.0547 58.9526 24.7119 57.9067C26.04 57.5268 26.8076 56.143 26.4277 54.8158C26.0479 53.4887 24.6641 52.7201 23.3369 53.1Z" fill="black"/>
<path d="M100.923 52.5771C93.4365 52.5771 87.3457 58.668 87.3457 66.1543C87.3457 73.6406 93.4365 79.7314 100.923 79.7314C108.409 79.7314 114.5 73.6406 114.5 66.1533C114.5 58.667 108.409 52.5771 100.923 52.5771ZM100.923 74.7305C96.1934 74.7305 92.3457 70.8828 92.3457 66.1533C92.3457 61.4248 96.1934 57.5771 100.923 57.5771C105.652 57.5771 109.5 61.4248 109.5 66.1533C109.5 70.8828 105.652 74.7305 100.923 74.7305Z" fill="black"/>
<path d="M63.999 79.7305C71.4854 79.7305 77.5762 73.6406 77.5762 66.1533C77.5762 58.667 71.4854 52.5771 63.999 52.5771C56.5127 52.5771 50.4219 58.668 50.4219 66.1543C50.4219 73.6406 56.5127 79.7305 63.999 79.7305ZM63.999 57.5771C68.7285 57.5771 72.5762 61.4248 72.5762 66.1543C72.5762 70.8828 68.7285 74.7314 63.999 74.7314C59.2695 74.7314 55.4219 70.8828 55.4219 66.1543C55.4219 61.4248 59.2695 57.5771 63.999 57.5771Z" fill="black"/>
<path d="M27.0771 114.5C34.5635 114.5 40.6543 108.409 40.6543 100.923C40.6543 93.4365 34.5635 87.3457 27.0771 87.3457C19.5908 87.3457 13.5 93.4365 13.5 100.923C13.5 108.409 19.5908 114.5 27.0771 114.5ZM27.0771 92.3467C31.8066 92.3467 35.6543 96.1943 35.6543 100.923C35.6543 105.652 31.8066 109.5 27.0771 109.5C22.3477 109.5 18.5 105.652 18.5 100.923C18.5 96.1934 22.3477 92.3467 27.0771 92.3467Z" fill="black"/>
<path d="M100.923 114.5C108.409 114.5 114.5 108.409 114.5 100.923C114.5 93.4365 108.409 87.3457 100.923 87.3457C93.4365 87.3457 87.3457 93.4365 87.3457 100.923C87.3457 108.409 93.4365 114.5 100.923 114.5ZM100.923 92.3467C105.652 92.3467 109.5 96.1943 109.5 100.923C109.5 105.652 105.652 109.5 100.923 109.5C96.1934 109.5 92.3457 105.652 92.3457 100.923C92.3457 96.1934 96.1934 92.3467 100.923 92.3467Z" fill="black"/>
<path d="M77.5762 100.923C77.5762 93.4365 71.4854 87.3457 63.999 87.3457C56.5127 87.3457 50.4219 93.4365 50.4219 100.923C50.4219 108.409 56.5127 114.5 63.999 114.5C71.4854 114.5 77.5762 108.409 77.5762 100.923ZM55.4219 100.923C55.4219 96.1934 59.2695 92.3457 63.999 92.3457C68.7285 92.3457 72.5762 96.1934 72.5762 100.923C72.5762 105.652 68.7285 109.5 63.999 109.5C59.2695 109.5 55.4219 105.652 55.4219 100.923Z" fill="black"/>
<path d="M47.082 123C46.4248 123 45.7803 123.268 45.3154 123.732C44.8496 124.197 44.582 124.843 44.582 125.5C44.582 126.157 44.8496 126.803 45.3154 127.268C45.7803 127.732 46.4248 128 47.082 128C47.7402 128 48.3848 127.732 48.8496 127.268C49.3174 126.803 49.582 126.157 49.582 125.5C49.582 124.843 49.3174 124.197 48.8496 123.732C48.3848 123.268 47.7402 123 47.082 123Z" fill="black"/>
<path d="M22.6504 62.7305C21.6738 63.707 21.6738 65.29 22.6504 66.2656L25.4072 69.0225C25.8955 69.5098 26.5352 69.7549 27.1748 69.7549C27.8145 69.7549 28.4541 69.5098 28.9424 69.0225L39.5244 58.4404C40.5 57.4648 40.5 55.8818 39.5244 54.9053C38.5479 53.9287 36.9648 53.9287 35.9883 54.9053L27.1748 63.7188L26.1855 62.7305C25.21 61.7539 23.627 61.7539 22.6504 62.7305Z" fill="black"/>
</g>
<defs>
<clipPath id="clip0">
<rect width="128" height="128" fill="white"/>
</clipPath>
</defs>
</svg>
