<svg width="128" height="128" viewBox="0 0 128 128" fill="none" xmlns="http://www.w3.org/2000/svg">
<g clip-path="url(#clip0)">
<path d="M2.5 115.749H125.499V125.749H2.5V115.749Z" fill="#8690A6"/>
<path d="M124.786 66.8369C101.068 61.4248 79.7423 48.4756 64.0001 29.9277C48.2579 48.4756 26.9317 61.4248 3.21387 66.8369L2.5 66.9991H5V115.749H122.999V66.9991H125.499L124.786 66.8369Z" fill="white"/>
<path d="M64 2.75L81.1582 12.6563L64 22.5635V2.75Z" fill="#EFC268"/>
<path d="M102.444 115.749C82.5567 97.7627 69.1895 73.6924 64.4327 47.3027L63.9912 44.8525L63.5489 47.3027C58.792 73.6924 45.4248 97.7627 25.5371 115.749H102.444Z" fill="white"/>
<path d="M112 21.1768C112 25.3301 108.633 28.6973 104.48 28.6973C100.326 28.6973 96.959 25.3301 96.959 21.1768C96.959 17.0234 100.326 13.6562 104.48 13.6562C108.633 13.6562 112 17.0234 112 21.1768Z" fill="#F5737F"/>
<path d="M23.6846 34.6768C23.6846 38.8301 20.3174 42.1973 16.1631 42.1973C12.0098 42.1973 8.64258 38.8301 8.64258 34.6768C8.64258 30.5234 12.0098 27.1562 16.1631 27.1562C20.3174 27.1562 23.6846 30.5234 23.6846 34.6768Z" fill="#F5737F"/>
<path d="M125.499 113.249V69.4998H125.502C126.642 69.4998 127.672 68.7147 127.937 67.5555C128.244 66.2088 127.401 64.869 126.056 64.5623L125.342 64.3992C102.6 59.2088 81.7412 46.6482 66.5 28.9949V24.0066L82.4092 14.8211C83.1826 14.3748 83.6592 13.5496 83.6592 12.656C83.6592 11.7634 83.1826 10.9382 82.4092 10.491L65.25 0.584717C64.4765 0.138428 63.5234 0.138428 62.75 0.584717C62.0263 1.00269 61.5673 1.75269 61.5107 2.57886C61.5039 2.62671 61.5 2.68238 61.5 2.74976V28.9949C46.2587 46.6482 25.4003 59.2088 2.65811 64.3992L1.94425 64.5623C0.597564 64.869 -0.244233 66.2088 0.063384 67.5555C0.328033 68.7147 1.35733 69.4998 2.49796 69.4998H2.50089V113.249C1.12003 113.249 0.000884046 114.369 0.000884046 115.749V125.749C0.000884046 127.13 1.12003 128.249 2.50089 128.249H125.5C126.88 128.249 128 127.13 128 125.749V115.749C127.999 114.368 126.88 113.249 125.499 113.249ZM90.1045 55.4451C99.5869 61.202 109.796 65.5321 120.499 68.3524V113.249H103.422C84.4326 95.7909 71.4707 72.2537 66.8925 46.8592L66.5 44.6795V36.4422C73.4912 43.7859 81.4062 50.1639 90.1045 55.4451ZM66.5 18.2332V7.07984L76.1592 12.657L66.5 18.2332ZM7.49991 68.3514C18.204 65.5321 28.413 61.202 37.8955 55.4441C46.5927 50.1629 54.5087 43.7859 61.5 36.4422V44.5779L61.0888 46.8592C56.5117 72.2537 43.5488 95.7899 24.5595 113.249H7.49991V68.3514ZM122.999 123.249H4.99991V118.249H52.7812C54.1621 118.249 55.2812 117.13 55.2812 115.749C55.2812 114.368 54.1621 113.249 52.7812 113.249H31.7802C39.8886 105.132 46.8134 95.9549 52.4033 85.8905C57.4912 76.7274 61.3701 67.0145 63.9912 56.9158C66.6113 67.0145 70.4902 76.7274 75.5791 85.8905C81.168 95.9549 88.0928 105.131 96.2012 113.249H75.2812C73.9004 113.249 72.7812 114.368 72.7812 115.749C72.7812 117.13 73.9004 118.249 75.2812 118.249H122.999V123.249Z" fill="black"/>
<path d="M104.479 31.1973C110.005 31.1973 114.5 26.7022 114.5 21.1768V6.56543C116.235 7.54492 117.754 8.875 118.96 10.4805C119.789 11.585 121.355 11.8086 122.46 10.9785C123.564 10.1494 123.787 8.58301 122.958 7.47852C120.779 4.57715 117.842 2.3457 114.461 1.02636L112.909 0.420894C112.14 0.121089 111.271 0.219721 110.59 0.685542C109.908 1.15136 109.501 1.9248 109.501 2.75V12.5107C108.023 11.6514 106.309 11.1563 104.479 11.1563C98.9541 11.1563 94.459 15.6514 94.459 21.1768C94.459 26.7022 98.9541 31.1973 104.479 31.1973ZM104.479 16.1563C107.248 16.1563 109.5 18.4082 109.5 21.1768C109.5 23.9453 107.248 26.1973 104.479 26.1973C101.711 26.1973 99.459 23.9453 99.459 21.1768C99.459 18.4082 101.711 16.1563 104.479 16.1563Z" fill="black"/>
<path d="M16.1631 44.6973C21.6885 44.6973 26.1846 40.2022 26.1846 34.6768V20.0654C27.919 21.0449 29.4375 22.374 30.6436 23.9805C31.4727 25.085 33.0391 25.3086 34.1436 24.4785C35.2481 23.6494 35.4707 22.083 34.6416 20.9785C32.4629 18.0771 29.5254 15.8457 26.1446 14.5264L24.5928 13.9209C23.8233 13.6211 22.9561 13.7197 22.2744 14.1855C21.5918 14.6514 21.1846 15.4238 21.1846 16.25V26.0107C19.707 25.1514 17.9922 24.6563 16.1641 24.6563C10.6387 24.6563 6.14258 29.1514 6.14258 34.6768C6.14258 40.2022 10.6387 44.6973 16.1631 44.6973ZM16.1631 29.6563C18.9317 29.6563 21.1846 31.9082 21.1846 34.6768C21.1846 37.4453 18.9317 39.6973 16.1631 39.6973C13.3945 39.6973 11.1426 37.4453 11.1426 34.6768C11.1426 31.9082 13.3945 29.6563 16.1631 29.6563Z" fill="black"/>
<path d="M64 113.249C63.3428 113.249 62.6973 113.517 62.2324 113.981C61.7676 114.446 61.5 115.092 61.5 115.749C61.5 116.406 61.7666 117.052 62.2324 117.517C62.6973 117.981 63.3428 118.249 64 118.249C64.6572 118.249 65.3027 117.981 65.7666 117.517C66.2324 117.052 66.5 116.406 66.5 115.749C66.5 115.092 66.2324 114.446 65.7666 113.981C65.3027 113.517 64.6572 113.249 64 113.249Z" fill="black"/>
</g>
<defs>
<clipPath id="clip0">
<rect width="128" height="128" fill="white"/>
</clipPath>
</defs>
</svg>
