<svg width="108" height="128" viewBox="0 0 108 128" fill="none" xmlns="http://www.w3.org/2000/svg">
<path d="M95.75 117.75H12.001V10.2505H95.75V117.75Z" fill="white"/>
<path d="M2.49805 19.2139L19.2083 2.50357L26.2442 9.53946L9.53393 26.2498L2.49805 19.2139Z" fill="#EFC268"/>
<path d="M81.4902 9.54785L88.5261 2.51196L105.236 19.2223L98.2005 26.2582L81.4902 9.54785Z" fill="#EFC268"/>
<path d="M81.4785 118.461L98.1888 101.751L105.225 108.787L88.5144 125.497L81.4785 118.461Z" fill="#EFC268"/>
<path d="M2.48828 108.778L9.52417 101.742L26.2345 118.453L19.1986 125.489L2.48828 108.778Z" fill="#EFC268"/>
<path d="M95.75 66.5C97.1307 66.5 98.25 65.3807 98.25 64C98.25 62.6193 97.1307 61.5 95.75 61.5C94.3693 61.5 93.25 62.6193 93.25 64C93.25 65.3807 94.3693 66.5 95.75 66.5Z" fill="black"/>
<path d="M47.625 44.126C47.625 45.5065 48.7443 46.626 50.125 46.626C51.5057 46.626 52.625 45.5065 52.625 44.126V32.876C52.625 31.4955 51.5057 30.376 50.125 30.376C48.7443 30.376 47.625 31.4955 47.625 32.876V44.126Z" fill="black"/>
<path d="M50.125 25.376C51.5057 25.376 52.625 24.2567 52.625 22.876C52.625 21.4953 51.5057 20.376 50.125 20.376C48.7443 20.376 47.625 21.4953 47.625 22.876C47.625 24.2567 48.7443 25.376 50.125 25.376Z" fill="black"/>
<path d="M61.375 70.125C61.375 65.6447 57.7302 62 53.25 62C48.77 62 45.125 65.6447 45.125 70.125C45.125 74.6052 48.7697 78.25 53.25 78.25C57.7302 78.25 61.375 74.6052 61.375 70.125ZM53.25 73.25C51.5267 73.25 50.125 71.8482 50.125 70.125C50.125 68.4017 51.5267 67 53.25 67C54.973 67 56.375 68.4017 56.375 70.125C56.375 71.8482 54.9732 73.25 53.25 73.25Z" fill="black"/>
<path d="M59.75 98.25H79.9998C81.3803 98.25 82.4998 97.1305 82.4998 95.75C82.4998 94.3695 81.3805 93.25 79.9998 93.25H59.75C58.3695 93.25 57.25 94.3695 57.25 95.75C57.25 97.1305 58.3693 98.25 59.75 98.25Z" fill="black"/>
<path d="M25.25 95.75C25.25 97.1305 26.3693 98.25 27.75 98.25H48.4997C49.8805 98.25 50.9997 97.1305 50.9997 95.75C50.9997 94.3695 49.8805 93.25 48.4997 93.25H27.75C26.3693 93.25 25.25 94.3693 25.25 95.75Z" fill="black"/>
<path d="M27.75 108.25H53.8748C55.2553 108.25 56.3748 107.13 56.3748 105.75C56.3748 104.37 55.2555 103.25 53.8748 103.25H27.75C26.3693 103.25 25.25 104.37 25.25 105.75C25.25 107.13 26.3693 108.25 27.75 108.25Z" fill="black"/>
<path d="M99.9796 99.9829C99.5021 99.5054 98.8771 99.2604 98.2496 99.2504V75.2504C98.2496 73.8729 97.1271 72.7504 95.7496 72.7504C94.3721 72.7504 93.2496 73.8729 93.2496 75.2504V103.178L81.1774 115.25H26.5729L14.5006 103.178V24.8234L26.5729 12.7509H81.1771L93.2494 24.8234V52.7506C93.2494 54.1281 94.3719 55.2506 95.7494 55.2506C97.1269 55.2506 98.2494 54.1281 98.2494 52.7506V28.7506C98.8769 28.7406 99.5019 28.4956 99.9794 28.0181L107.017 20.9806C107.994 20.0056 107.994 18.4231 107.017 17.4456L90.3046 0.733125C89.3271 -0.244375 87.7446 -0.244375 86.7696 0.733125L79.7521 7.75062H27.9979L20.9804 0.733125C20.5129 0.263125 19.8754 0.000625018 19.2129 0.000625018C18.5504 0.000625018 17.9154 0.263125 17.4454 0.733125L0.733125 17.4456C-0.244375 18.4231 -0.244375 20.0056 0.733125 20.9806L7.77063 28.0181C8.22813 28.4781 8.85063 28.7406 9.50063 28.7506V99.2504C8.85063 99.2604 8.22813 99.5229 7.77063 99.9829L0.733125 107.02C-0.244375 107.995 -0.244375 109.578 0.733125 110.555L17.4454 127.268C17.9154 127.738 18.5504 128 19.2129 128C19.8754 128 20.5129 127.738 20.9804 127.268L27.9979 120.25H79.7524L86.7699 127.268C87.2574 127.755 87.8974 128 88.5374 128C89.1774 128 89.8174 127.755 90.3049 127.268L107.017 110.555C107.995 109.578 107.995 107.995 107.017 107.02L99.9796 99.9829ZM88.5371 6.03612L101.714 19.2136L98.2119 22.7161L85.0346 9.53862L88.5371 6.03612ZM6.03563 19.2134L19.2129 6.03587L22.7154 9.53837L9.53813 22.7159L6.03563 19.2134ZM19.2131 121.965L6.03588 108.788L9.50088 105.323L9.53838 105.285L22.7156 118.463L19.2131 121.965ZM88.5371 121.965L85.0346 118.463L98.2119 105.285L98.2494 105.323L101.714 108.788L88.5371 121.965Z" fill="black"/>
<path d="M27.625 20.376C26.2443 20.376 25.125 21.4955 25.125 22.876V44.126C25.125 45.5065 26.2443 46.626 27.625 46.626C29.0057 46.626 30.125 45.5065 30.125 44.126V35.501H37.625V44.126C37.625 45.5065 38.7443 46.626 40.125 46.626C41.5058 46.626 42.625 45.5065 42.625 44.126V22.876C42.625 21.4955 41.5058 20.376 40.125 20.376C38.7443 20.376 37.625 21.4955 37.625 22.876V30.501H30.125V22.876C30.125 21.4955 29.0057 20.376 27.625 20.376Z" fill="black"/>
<path d="M25.125 75.75C25.125 77.1305 26.2443 78.25 27.625 78.25C29.0057 78.25 30.125 77.1305 30.125 75.75V69.5C30.125 68.1215 31.2465 67 32.625 67C34.0035 67 35.125 68.1215 35.125 69.5V75.75C35.125 77.1305 36.2443 78.25 37.625 78.25C39.0057 78.25 40.125 77.1305 40.125 75.75V69.5C40.125 65.3645 36.7605 62 32.625 62C31.7485 62 30.9075 62.1525 30.125 62.43V54.25C30.125 52.8695 29.0057 51.75 27.625 51.75C26.2443 51.75 25.125 52.8695 25.125 54.25V75.75Z" fill="black"/>
<path d="M62.6248 54.125V45.9993C63.5873 46.402 64.6428 46.625 65.7498 46.625C70.23 46.625 73.8748 42.9803 73.8748 38.5C73.8748 34.0198 70.23 30.375 65.7498 30.375C64.415 30.375 63.1555 30.7005 62.0435 31.2733C61.585 30.7245 60.8958 30.375 60.125 30.375C58.7445 30.375 57.625 31.4945 57.625 32.875V54.125C57.625 55.5055 58.7445 56.625 60.125 56.625C61.5053 56.625 62.6248 55.5058 62.6248 54.125ZM65.7495 35.3753C67.4725 35.3753 68.8745 36.777 68.8745 38.5003C68.8745 40.2235 67.4728 41.6253 65.7495 41.6253C64.0262 41.6253 62.6245 40.2235 62.6245 38.5003C62.6247 36.777 64.0265 35.3753 65.7495 35.3753Z" fill="black"/>
<path d="M74.4997 62C73.165 62 71.9055 62.3255 70.7935 62.8982C70.335 62.3495 69.6458 62 68.875 62C67.4945 62 66.375 63.1195 66.375 64.5V85.75C66.375 87.1305 67.4943 88.25 68.875 88.25C70.2557 88.25 71.375 87.1305 71.375 85.75V77.6242C72.3375 78.027 73.393 78.25 74.5 78.25C78.9802 78.25 82.625 74.6052 82.625 70.125C82.625 65.6447 78.98 62 74.4997 62ZM74.4997 73.25C72.7765 73.25 71.3747 71.8482 71.3747 70.125C71.3747 68.4017 72.7765 67 74.4997 67C76.2227 67 77.6247 68.4017 77.6247 70.125C77.6247 71.8482 76.223 73.25 74.4997 73.25Z" fill="black"/>
</svg>
