<svg width="146" height="40" viewBox="0 0 146 40" fill="none" xmlns="http://www.w3.org/2000/svg">
<g clip-path="url(#clip0)">
<path d="M0 26.5949C0.330942 26.276 0.275121 25.8205 0.410687 25.4343C1.25599 23.0119 3.86166 21.4451 6.37961 21.9047C9.01519 22.386 10.8673 24.4934 10.8792 27.1456C10.8912 29.8888 8.80586 32.1389 6.11845 32.4637C3.5028 32.7786 1.11643 31.1604 0.303032 28.5598C0.221293 28.3003 0.338917 27.9438 0 27.7774C0 27.3832 0 26.9891 0 26.5949Z" fill="#D6A94F"/>
<path d="M19.4838 27.1375C19.5097 21.1776 24.3622 16.4675 30.4587 16.5349C35.999 16.5963 40.9252 20.9815 40.9591 26.9949C40.993 33.2262 36.2183 37.7976 30.1935 37.7956C24.103 37.7936 19.5017 33.0004 19.4838 27.1375Z" fill="#D6A94F"/>
<path d="M30.2394 10.8503C27.245 10.8642 24.8746 8.53487 24.8626 5.56582C24.8506 2.59677 27.2789 0.204102 30.3052 0.204102C33.1062 0.206082 35.5784 2.63639 35.6122 5.42519C35.6461 8.41999 33.2538 10.8345 30.2394 10.8503Z" fill="#D6A94F"/>
<path d="M8.7181 11.3236C8.77591 8.38428 11.2081 6.06489 14.1946 6.1045C17.0574 6.14412 19.5515 8.67742 19.4657 11.4583C19.372 14.4947 16.9757 16.7943 13.9514 16.7507C10.9829 16.7091 8.66028 14.3006 8.7181 11.3236Z" fill="#D6A94F"/>
<path d="M46.3401 16.7525C43.3636 16.7465 41.0051 14.3796 41.0131 11.4086C41.0211 8.45734 43.4912 6.07457 46.5115 6.10428C49.3166 6.13201 51.7548 8.58014 51.7568 11.3709C51.7607 14.3717 49.3564 16.7584 46.3401 16.7525Z" fill="#D6A94F"/>
<path d="M49.5736 27.1332C49.5796 24.1662 52.0138 21.8289 55.078 21.8507C57.913 21.8705 60.3213 24.2771 60.3233 27.0936C60.3253 30.0805 57.8831 32.5187 54.9106 32.4969C51.962 32.4771 49.5676 30.0726 49.5736 27.1332Z" fill="#D6A94F"/>
<path d="M135.583 40C135.202 38.7086 134.435 37.5915 133.894 36.3714C133.739 36.0228 133.559 35.6841 133.364 35.282C134.148 35.2068 134.837 35.1573 135.523 35.0721C137.377 34.8443 138.26 33.9074 138.396 32.0337C138.428 31.5762 138.434 31.1147 138.434 30.6571C138.436 24.1248 138.434 17.5925 138.438 11.0622C138.438 10.7076 138.372 10.3432 138.527 9.92725C140.38 9.92725 142.248 9.92725 144.122 9.92725C144.283 10.159 144.233 10.4303 144.233 10.6878C144.235 17.8757 144.239 25.0637 144.233 32.2536C144.231 34.9136 143.286 37.1181 141.004 38.6512C140.114 39.2474 139.126 39.6039 138.073 39.8C137.894 39.8337 137.66 39.7465 137.573 40.002C136.909 40 136.245 40 135.583 40Z" fill="white"/>
<path d="M71.7307 26.3271C73.0704 24.804 74.3763 23.3205 75.7439 21.7676C76.2583 22.4272 76.7188 23.0531 77.2172 23.6453C78.3914 25.0377 79.5816 26.4064 81.4856 26.8619C83.2459 27.2838 84.9724 27.2878 86.6251 26.4797C88.6626 25.4854 88.856 23.3165 87.0259 21.9795C85.8556 21.1239 84.47 20.7594 83.0725 20.4702C81.0191 20.0484 79.0792 19.3809 77.2212 18.3806C72.4066 15.7899 71.7048 8.0038 76.8863 4.54155C81.3261 1.57448 90.2536 1.34868 94.0474 8.09293C94.0953 8.1781 94.1332 8.26723 94.1172 8.23158C92.7336 9.65965 91.3899 11.0461 90.0004 12.4802C89.4162 11.6978 88.9358 10.9154 88.3277 10.2261C86.5753 8.2395 84.3823 7.67698 81.8544 8.27317C80.8616 8.50689 79.9903 8.99612 79.5218 9.95874C78.9297 11.1729 79.4182 12.6346 80.6602 13.3497C81.7587 13.9815 82.9748 14.3123 84.2069 14.5737C86.2244 15.0016 88.1842 15.5997 89.9645 16.6436C92.0219 17.8498 93.7285 19.3928 94.1411 21.8686C94.8768 26.2895 92.6479 30.2053 88.3915 31.7443C82.9449 33.7171 75.6741 32.7703 71.7307 26.3271Z" fill="white"/>
<path d="M133.82 32.2023C131.885 32.2023 130.04 32.2023 128.153 32.2023C128.013 31.5645 128.374 30.9604 128.178 30.3464C127.784 30.3741 127.556 30.691 127.265 30.8851C123.095 33.6759 117.881 33.0857 114.458 29.4254C110.248 24.9233 110.359 16.848 114.63 12.5162C117.79 9.31148 123.846 8.19239 127.726 11.1476C127.851 11.2426 127.995 11.3179 128.149 11.415C128.34 10.9079 128.079 10.4722 128.101 9.94134C129.993 9.94134 131.883 9.94134 133.82 9.94134C133.82 17.3392 133.82 24.7173 133.82 32.2023ZM128.224 20.8549C128.274 20.3459 128.143 19.7319 127.999 19.1278C127.409 16.6361 125.459 14.9862 122.969 14.8455C120.593 14.7108 118.519 16.0676 117.684 18.3711C117.034 20.1617 117.052 21.98 117.734 23.7566C118.551 25.8879 120.405 27.1793 122.574 27.207C124.941 27.2387 126.739 26.0562 127.676 23.8497C128.065 22.9307 128.23 21.9701 128.224 20.8549Z" fill="white"/>
<path d="M106.031 32.2478C104.295 32.2478 102.708 32.2498 101.121 32.2458C100.862 32.2458 100.603 32.2181 100.224 32.1963C100.224 26.6345 100.224 21.1084 100.224 15.4872C98.7285 15.4872 97.3529 15.4872 95.9294 15.4872C95.9294 13.5659 95.9294 11.7457 95.9294 9.84024C97.3669 9.84024 98.7484 9.84024 100.212 9.84024C100.212 8.06752 100.212 6.37403 100.212 4.61914C102.166 4.61914 104.032 4.61914 105.979 4.61914C105.979 6.34234 105.979 8.03979 105.979 9.84816C107.628 9.84816 109.203 9.84816 110.824 9.84816C110.824 11.7536 110.824 13.5481 110.824 15.4674C109.261 15.4674 107.69 15.4674 106.031 15.4674C106.031 21.0925 106.031 26.5929 106.031 32.2478Z" fill="white"/>
<path d="M137.951 3.40502C137.965 1.34312 139.42 -0.0195938 141.593 0.000213077C143.736 0.02002 145.132 1.36689 145.116 3.40105C145.1 5.41145 143.557 6.85141 141.452 6.81378C139.285 6.77615 137.939 5.46691 137.951 3.40502Z" fill="white"/>
</g>
<defs>
<clipPath id="clip0">
<rect width="145.116" height="40" fill="white"/>
</clipPath>
</defs>
</svg>
