<svg width="146" height="40" viewBox="0 0 146 40" fill="none" xmlns="http://www.w3.org/2000/svg">
<g clip-path="url(#clip0)">
<path d="M0 26.5949C0.330942 26.276 0.275121 25.8205 0.410687 25.4343C1.25599 23.0119 3.86166 21.4451 6.37961 21.9047C9.01519 22.386 10.8673 24.4934 10.8792 27.1456C10.8912 29.8888 8.80586 32.1389 6.11845 32.4637C3.5028 32.7786 1.11643 31.1604 0.303032 28.5598C0.221293 28.3003 0.338917 27.9438 0 27.7774C0 27.3832 0 26.9891 0 26.5949Z" fill="#D6A94F"/>
<path d="M19.4839 27.1375C19.5098 21.1776 24.3623 16.4675 30.4588 16.5349C35.9991 16.5963 40.9254 20.9815 40.9592 26.9949C40.9931 33.2262 36.2184 37.7976 30.1937 37.7956C24.1031 37.7936 19.5018 33.0004 19.4839 27.1375Z" fill="#D6A94F"/>
<path d="M30.2397 10.8503C27.2452 10.8642 24.8748 8.53487 24.8628 5.56582C24.8509 2.59677 27.2791 0.204102 30.3054 0.204102C33.1065 0.206082 35.5786 2.63639 35.6125 5.42519C35.6464 8.41999 33.254 10.8345 30.2397 10.8503Z" fill="#D6A94F"/>
<path d="M8.71834 11.3236C8.77616 8.38428 11.2084 6.06489 14.1948 6.1045C17.0577 6.14412 19.5517 8.67742 19.466 11.4583C19.3723 14.4947 16.976 16.7943 13.9516 16.7507C10.9831 16.7091 8.66053 14.3006 8.71834 11.3236Z" fill="#D6A94F"/>
<path d="M46.3402 16.7525C43.3637 16.7465 41.0052 14.3796 41.0132 11.4086C41.0212 8.45734 43.4913 6.07457 46.5116 6.10428C49.3167 6.13201 51.7549 8.58014 51.7569 11.3709C51.7609 14.3717 49.3565 16.7584 46.3402 16.7525Z" fill="#D6A94F"/>
<path d="M49.5737 27.1332C49.5797 24.1662 52.0139 21.8289 55.0782 21.8507C57.9131 21.8705 60.3214 24.2771 60.3234 27.0936C60.3254 30.0805 57.8832 32.5187 54.9107 32.4969C51.9621 32.4771 49.5678 30.0726 49.5737 27.1332Z" fill="#D6A94F"/>
<path d="M135.583 40C135.202 38.7086 134.435 37.5915 133.895 36.3714C133.739 36.0228 133.56 35.6841 133.364 35.282C134.148 35.2068 134.838 35.1573 135.523 35.0721C137.377 34.8443 138.261 33.9074 138.396 32.0337C138.428 31.5762 138.434 31.1147 138.434 30.6571C138.436 24.1248 138.434 17.5925 138.438 11.0622C138.438 10.7076 138.372 10.3432 138.528 9.92725C140.38 9.92725 142.248 9.92725 144.122 9.92725C144.283 10.159 144.233 10.4303 144.233 10.6878C144.235 17.8757 144.239 25.0637 144.233 32.2536C144.231 34.9136 143.287 37.1181 141.004 38.6512C140.115 39.2474 139.126 39.6039 138.073 39.8C137.894 39.8337 137.661 39.7465 137.573 40.002C136.909 40 136.245 40 135.583 40Z" fill="black"/>
<path d="M71.7305 26.3271C73.0702 24.804 74.376 23.3205 75.7437 21.7676C76.258 22.4272 76.7185 23.0531 77.217 23.6453C78.3912 25.0377 79.5814 26.4064 81.4853 26.8619C83.2457 27.2838 84.9722 27.2878 86.6249 26.4797C88.6624 25.4854 88.8558 23.3165 87.0256 21.9795C85.8554 21.1239 84.4698 20.7594 83.0722 20.4702C81.0188 20.0484 79.079 19.3809 77.2209 18.3806C72.4063 15.7899 71.7046 8.0038 76.886 4.54155C81.3258 1.57448 90.2533 1.34868 94.0472 8.09293C94.095 8.1781 94.1329 8.26723 94.117 8.23158C92.7334 9.65965 91.3897 11.0461 90.0001 12.4802C89.416 11.6978 88.9355 10.9154 88.3275 10.2261C86.5751 8.2395 84.3821 7.67698 81.8541 8.27317C80.8613 8.50689 79.9901 8.99612 79.5216 9.95874C78.9295 11.1729 79.4179 12.6346 80.66 13.3497C81.7584 13.9815 82.9746 14.3123 84.2066 14.5737C86.2242 15.0016 88.1839 15.5997 89.9642 16.6436C92.0217 17.8498 93.7282 19.3928 94.1409 21.8686C94.8765 26.2895 92.6477 30.2053 88.3913 31.7443C82.9447 33.7171 75.6739 32.7703 71.7305 26.3271Z" fill="black"/>
<path d="M133.82 32.2023C131.885 32.2023 130.04 32.2023 128.153 32.2023C128.013 31.5645 128.374 30.9604 128.178 30.3464C127.784 30.3741 127.556 30.691 127.265 30.8851C123.095 33.6759 117.881 33.0857 114.458 29.4254C110.248 24.9233 110.359 16.848 114.63 12.5162C117.79 9.31148 123.846 8.19239 127.726 11.1476C127.851 11.2426 127.995 11.3179 128.149 11.415C128.34 10.9079 128.079 10.4722 128.101 9.94134C129.993 9.94134 131.883 9.94134 133.82 9.94134C133.82 17.3392 133.82 24.7173 133.82 32.2023ZM128.224 20.8549C128.274 20.3459 128.143 19.7319 127.999 19.1278C127.409 16.6361 125.459 14.9862 122.969 14.8455C120.593 14.7108 118.519 16.0676 117.684 18.3711C117.034 20.1617 117.052 21.98 117.734 23.7566C118.551 25.8879 120.405 27.1793 122.574 27.207C124.941 27.2387 126.739 26.0562 127.676 23.8497C128.065 22.9307 128.23 21.9701 128.224 20.8549Z" fill="black"/>
<path d="M106.031 32.2478C104.295 32.2478 102.708 32.2498 101.121 32.2458C100.862 32.2458 100.603 32.2181 100.224 32.1963C100.224 26.6345 100.224 21.1084 100.224 15.4872C98.7287 15.4872 97.3531 15.4872 95.9297 15.4872C95.9297 13.5659 95.9297 11.7457 95.9297 9.84024C97.3671 9.84024 98.7487 9.84024 100.212 9.84024C100.212 8.06752 100.212 6.37403 100.212 4.61914C102.166 4.61914 104.032 4.61914 105.98 4.61914C105.98 6.34234 105.98 8.03979 105.98 9.84816C107.628 9.84816 109.203 9.84816 110.824 9.84816C110.824 11.7536 110.824 13.5481 110.824 15.4674C109.261 15.4674 107.69 15.4674 106.031 15.4674C106.031 21.0925 106.031 26.5929 106.031 32.2478Z" fill="black"/>
<path d="M137.951 3.40502C137.965 1.34312 139.421 -0.0195938 141.594 0.000213077C143.737 0.02002 145.132 1.36689 145.116 3.40105C145.1 5.41145 143.557 6.85141 141.452 6.81378C139.285 6.77615 137.939 5.46691 137.951 3.40502Z" fill="black"/>
</g>
<defs>
<clipPath id="clip0">
<rect width="145.116" height="40" fill="white"/>
</clipPath>
</defs>
</svg>
