<svg width="61" height="38" viewBox="0 0 61 38" fill="none" xmlns="http://www.w3.org/2000/svg">
<g clip-path="url(#clip0)">
<path d="M0 26.5949C0.330942 26.276 0.275121 25.8205 0.410687 25.4343C1.25599 23.0119 3.86166 21.4451 6.37961 21.9047C9.01519 22.386 10.8673 24.4934 10.8792 27.1456C10.8912 29.8888 8.80586 32.1389 6.11845 32.4637C3.5028 32.7786 1.11643 31.1604 0.303032 28.5598C0.221293 28.3003 0.338917 27.9438 0 27.7774C0 27.3832 0 26.9891 0 26.5949Z" fill="#D6A94F"/>
<path d="M19.4838 27.1375C19.5097 21.1776 24.3622 16.4675 30.4587 16.5349C35.999 16.5963 40.9252 20.9815 40.9591 26.9949C40.993 33.2262 36.2183 37.7976 30.1935 37.7956C24.103 37.7936 19.5017 33.0004 19.4838 27.1375Z" fill="#D6A94F"/>
<path d="M30.2394 10.8503C27.245 10.8642 24.8746 8.53487 24.8626 5.56582C24.8506 2.59677 27.2789 0.204102 30.3052 0.204102C33.1062 0.206082 35.5784 2.63639 35.6122 5.42519C35.6461 8.41999 33.2538 10.8345 30.2394 10.8503Z" fill="#D6A94F"/>
<path d="M8.7181 11.3236C8.77591 8.38428 11.2081 6.06489 14.1946 6.1045C17.0574 6.14412 19.5515 8.67742 19.4657 11.4583C19.372 14.4947 16.9757 16.7943 13.9514 16.7507C10.9829 16.7091 8.66028 14.3006 8.7181 11.3236Z" fill="#D6A94F"/>
<path d="M46.3401 16.7525C43.3636 16.7465 41.0051 14.3796 41.0131 11.4086C41.0211 8.45734 43.4912 6.07457 46.5115 6.10428C49.3166 6.13201 51.7548 8.58014 51.7568 11.3709C51.7607 14.3717 49.3564 16.7584 46.3401 16.7525Z" fill="#D6A94F"/>
<path d="M49.5736 27.1332C49.5796 24.1662 52.0138 21.8289 55.078 21.8507C57.913 21.8705 60.3213 24.2771 60.3233 27.0936C60.3253 30.0805 57.8831 32.5187 54.9106 32.4969C51.962 32.4771 49.5676 30.0726 49.5736 27.1332Z" fill="#D6A94F"/>
</g>
<defs>
<clipPath id="clip0">
<rect width="61" height="38" fill="white"/>
</clipPath>
</defs>
</svg>
